<svg xmlns="http://www.w3.org/2000/svg" width="46" height="46" viewBox="0 0 46 46" fill="none">
<path d="M14.1422 8.95346L18.3848 13.1961C19.9469 14.7582 19.9469 17.2909 18.3848 18.853L7.07108 30.1667L2.82844 25.924C1.26635 24.3619 1.26635 21.8293 2.82844 20.2672L14.1422 8.95346Z" fill="#000000"/>
<path d="M14.1422 8.95346L18.3848 13.1961C19.9469 14.7582 19.9469 17.2909 18.3848 18.853L7.07108 30.1667L2.82844 25.924C1.26635 24.3619 1.26635 21.8293 2.82844 20.2672L14.1422 8.95346Z" fill="#000000"/>
<path d="M14.8492 8.24635L19.0919 4.00371C20.654 2.44162 23.1866 2.44162 24.7487 4.00371L26.163 5.41793C27.725 6.98002 27.725 9.51268 26.163 11.0748L24.7487 12.489C23.1866 14.0511 20.654 14.0511 19.0919 12.489L14.8492 8.24635Z" fill="#000000"/>
<path d="M14.8492 8.24635L19.0919 4.00371C20.654 2.44162 23.1866 2.44162 24.7487 4.00371L26.163 5.41793C27.725 6.98002 27.725 9.51268 26.163 11.0748L24.7487 12.489C23.1866 14.0511 20.654 14.0511 19.0919 12.489L14.8492 8.24635Z" fill="#000000"/>
<path d="M14.8492 23.8027L19.0919 28.0453C20.654 29.6074 20.654 32.1401 19.0919 33.7022L14.8492 37.9448L7.77817 30.8738L14.8492 23.8027Z" fill="#000000"/>
<path d="M15.5564 23.0956L19.799 18.853C21.3611 17.2909 23.8938 17.2909 25.4559 18.853L26.8701 20.2672C28.4322 21.8293 28.4322 24.3619 26.8701 25.924L25.4559 27.3382C23.8938 28.9003 21.3611 28.9003 19.799 27.3382L15.5564 23.0956Z" fill="#000000"/>
<path d="M15.5564 23.0956L19.799 18.853C21.3611 17.2909 23.8938 17.2909 25.4559 18.853L26.8701 20.2672C28.4322 21.8293 28.4322 24.3619 26.8701 25.924L25.4559 27.3382C23.8938 28.9003 21.3611 28.9003 19.799 27.3382L15.5564 23.0956Z" fill="#000000"/>
<path d="M15.5563 38.6519L19.799 34.4093C21.3611 32.8472 23.8937 32.8472 25.4558 34.4093L26.87 35.8235C28.4321 37.3856 28.4321 39.9183 26.87 41.4804L25.4558 42.8946C23.8937 44.4567 21.3611 44.4567 19.799 42.8946L15.5563 38.6519Z" fill="#000000"/>
<path d="M15.5563 38.6519L19.799 34.4093C21.3611 32.8472 23.8937 32.8472 25.4558 34.4093L26.87 35.8235C28.4321 37.3856 28.4321 39.9183 26.87 41.4804L25.4558 42.8946C23.8937 44.4567 21.3611 44.4567 19.799 42.8946L15.5563 38.6519Z" fill="#000000"/>
</svg>