<svg width="159" height="48" viewBox="0 0 159 48" fill="none" xmlns="http://www.w3.org/2000/svg">
<path d="M14.1422 9.95346L18.3848 14.1961C19.9469 15.7582 19.9469 18.2909 18.3848 19.853L7.07108 31.1667L2.82844 26.924C1.26635 25.3619 1.26635 22.8293 2.82844 21.2672L14.1422 9.95346Z" fill="white"/>
<path d="M14.1422 9.95346L18.3848 14.1961C19.9469 15.7582 19.9469 18.2909 18.3848 19.853L7.07108 31.1667L2.82844 26.924C1.26635 25.3619 1.26635 22.8293 2.82844 21.2672L14.1422 9.95346Z" fill="white"/>
<path d="M14.8492 9.24635L19.0919 5.00371C20.654 3.44162 23.1866 3.44162 24.7487 5.00371L26.163 6.41793C27.725 7.98002 27.725 10.5127 26.163 12.0748L24.7487 13.489C23.1866 15.0511 20.654 15.0511 19.0919 13.489L14.8492 9.24635Z" fill="white"/>
<path d="M14.8492 9.24635L19.0919 5.00371C20.654 3.44162 23.1866 3.44162 24.7487 5.00371L26.163 6.41793C27.725 7.98002 27.725 10.5127 26.163 12.0748L24.7487 13.489C23.1866 15.0511 20.654 15.0511 19.0919 13.489L14.8492 9.24635Z" fill="white"/>
<path d="M14.8492 24.8027L19.0919 29.0453C20.654 30.6074 20.654 33.1401 19.0919 34.7022L14.8492 38.9448L7.77817 31.8738L14.8492 24.8027Z" fill="white"/>
<path d="M15.5564 24.0956L19.799 19.853C21.3611 18.2909 23.8938 18.2909 25.4559 19.853L26.8701 21.2672C28.4322 22.8293 28.4322 25.3619 26.8701 26.924L25.4559 28.3382C23.8938 29.9003 21.3611 29.9003 19.799 28.3382L15.5564 24.0956Z" fill="white"/>
<path d="M15.5564 24.0956L19.799 19.853C21.3611 18.2909 23.8938 18.2909 25.4559 19.853L26.8701 21.2672C28.4322 22.8293 28.4322 25.3619 26.8701 26.924L25.4559 28.3382C23.8938 29.9003 21.3611 29.9003 19.799 28.3382L15.5564 24.0956Z" fill="white"/>
<path d="M15.5563 39.6519L19.799 35.4093C21.3611 33.8472 23.8937 33.8472 25.4558 35.4093L26.87 36.8235C28.4321 38.3856 28.4321 40.9183 26.87 42.4804L25.4558 43.8946C23.8937 45.4567 21.3611 45.4567 19.799 43.8946L15.5563 39.6519Z" fill="white"/>
<path d="M15.5563 39.6519L19.799 35.4093C21.3611 33.8472 23.8937 33.8472 25.4558 35.4093L26.87 36.8235C28.4321 38.3856 28.4321 40.9183 26.87 42.4804L25.4558 43.8946C23.8937 45.4567 21.3611 45.4567 19.799 43.8946L15.5563 39.6519Z" fill="white"/>
<path d="M50.9745 39V9.90909H70.2358V14.9801H57.125V21.9119H68.9574V26.983H57.125V39H50.9745ZM73.9077 39V17.1818H79.7742V20.9886H80.0014C80.3992 19.6345 81.0668 18.6117 82.0043 17.9205C82.9418 17.2197 84.0213 16.8693 85.2429 16.8693C85.5459 16.8693 85.8727 16.8883 86.223 16.9261C86.5734 16.964 86.8812 17.0161 87.1463 17.0824V22.4517C86.8622 22.3665 86.4692 22.2907 85.9674 22.2244C85.4655 22.1581 85.0062 22.125 84.5895 22.125C83.6994 22.125 82.9039 22.3191 82.2031 22.7074C81.5119 23.0862 80.9626 23.6165 80.5554 24.2983C80.1577 24.9801 79.9588 25.7661 79.9588 26.6562V39H73.9077ZM95.8715 39.4119C94.4794 39.4119 93.2389 39.1705 92.1499 38.6875C91.0609 38.1951 90.1991 37.4706 89.5647 36.5142C88.9397 35.5483 88.6272 34.3456 88.6272 32.9062C88.6272 31.6941 88.8497 30.6761 89.2948 29.8523C89.7398 29.0284 90.3459 28.3655 91.1129 27.8636C91.88 27.3617 92.7512 26.983 93.7266 26.7273C94.7114 26.4716 95.7436 26.2917 96.8232 26.1875C98.0921 26.0549 99.1148 25.9318 99.8914 25.8182C100.668 25.6951 101.231 25.5151 101.582 25.2784C101.932 25.0417 102.107 24.6913 102.107 24.2273V24.142C102.107 23.2424 101.823 22.5464 101.255 22.054C100.696 21.5616 99.9008 21.3153 98.8686 21.3153C97.7796 21.3153 96.9131 21.5568 96.2692 22.0398C95.6253 22.5133 95.1991 23.1098 94.9908 23.8295L89.3942 23.375C89.6783 22.0492 90.237 20.9034 91.0703 19.9375C91.9037 18.9621 92.9785 18.214 94.2948 17.6932C95.6205 17.1629 97.1546 16.8977 98.897 16.8977C100.109 16.8977 101.269 17.0398 102.377 17.3239C103.495 17.608 104.484 18.0483 105.346 18.6449C106.217 19.2415 106.904 20.0085 107.406 20.946C107.907 21.8741 108.158 22.9867 108.158 24.2841V39H102.42V35.9744H102.249C101.899 36.6562 101.43 37.2576 100.843 37.7784C100.256 38.2898 99.5504 38.6922 98.7266 38.9858C97.9027 39.2699 96.951 39.4119 95.8715 39.4119ZM97.6044 35.2358C98.4946 35.2358 99.2806 35.0606 99.9624 34.7102C100.644 34.3504 101.179 33.8674 101.567 33.2614C101.956 32.6553 102.15 31.9687 102.15 31.2017V28.8864C101.96 29.0095 101.7 29.1231 101.369 29.2273C101.047 29.322 100.682 29.4119 100.275 29.4972C99.8677 29.5729 99.4605 29.6439 99.0533 29.7102C98.6461 29.767 98.2768 29.8191 97.9453 29.8665C97.2351 29.9706 96.6148 30.1364 96.0845 30.3636C95.5542 30.5909 95.1423 30.8987 94.8487 31.2869C94.5552 31.6657 94.4084 32.1392 94.4084 32.7074C94.4084 33.5312 94.7067 34.161 95.3033 34.5966C95.9093 35.0227 96.6764 35.2358 97.6044 35.2358ZM122.683 47.6364C120.722 47.6364 119.041 47.3665 117.64 46.8267C116.248 46.2964 115.14 45.572 114.316 44.6534C113.492 43.7348 112.957 42.7026 112.711 41.5568L118.308 40.804C118.478 41.2396 118.748 41.6468 119.117 42.0256C119.487 42.4044 119.974 42.7074 120.58 42.9347C121.196 43.1714 121.944 43.2898 122.825 43.2898C124.141 43.2898 125.225 42.9678 126.077 42.3239C126.939 41.6894 127.37 40.6241 127.37 39.1278V35.1364H127.114C126.849 35.7424 126.451 36.3153 125.921 36.8551C125.391 37.3949 124.709 37.8352 123.876 38.1761C123.042 38.517 122.048 38.6875 120.893 38.6875C119.255 38.6875 117.763 38.3087 116.418 37.5511C115.083 36.7841 114.018 35.6146 113.222 34.0426C112.436 32.4612 112.043 30.4631 112.043 28.0483C112.043 25.5767 112.446 23.5123 113.251 21.8551C114.056 20.1979 115.126 18.9574 116.461 18.1335C117.806 17.3097 119.278 16.8977 120.879 16.8977C122.1 16.8977 123.123 17.1061 123.947 17.5227C124.771 17.9299 125.433 18.4413 125.935 19.0568C126.447 19.6629 126.84 20.2595 127.114 20.8466H127.342V17.1818H133.35V39.2131C133.35 41.0691 132.896 42.6222 131.987 43.8722C131.077 45.1222 129.818 46.0597 128.208 46.6847C126.608 47.3191 124.766 47.6364 122.683 47.6364ZM122.81 34.142C123.786 34.142 124.61 33.9006 125.282 33.4176C125.964 32.9252 126.485 32.2244 126.844 31.3153C127.214 30.3968 127.398 29.2983 127.398 28.0199C127.398 26.7415 127.219 25.6335 126.859 24.696C126.499 23.7491 125.978 23.0151 125.296 22.4943C124.614 21.9735 123.786 21.7131 122.81 21.7131C121.816 21.7131 120.978 21.983 120.296 22.5227C119.614 23.053 119.098 23.7917 118.748 24.7386C118.398 25.6856 118.222 26.7794 118.222 28.0199C118.222 29.2794 118.398 30.3684 118.748 31.2869C119.108 32.196 119.624 32.9015 120.296 33.4034C120.978 33.8958 121.816 34.142 122.81 34.142ZM156.319 23.4034L150.779 23.7443C150.684 23.2708 150.481 22.8447 150.168 22.4659C149.856 22.0776 149.444 21.7699 148.933 21.5426C148.431 21.3059 147.829 21.1875 147.129 21.1875C146.191 21.1875 145.4 21.3864 144.756 21.7841C144.112 22.1723 143.79 22.6932 143.79 23.3466C143.79 23.8674 143.999 24.3078 144.415 24.6676C144.832 25.0275 145.547 25.3163 146.56 25.5341L150.509 26.3295C152.63 26.7651 154.212 27.4659 155.254 28.4318C156.295 29.3977 156.816 30.6667 156.816 32.2386C156.816 33.6686 156.395 34.9233 155.552 36.0028C154.719 37.0824 153.573 37.9252 152.114 38.5312C150.665 39.1278 148.994 39.4261 147.1 39.4261C144.212 39.4261 141.911 38.8248 140.197 37.6222C138.492 36.41 137.493 34.7623 137.2 32.679L143.151 32.3665C143.331 33.2472 143.767 33.9195 144.458 34.3835C145.149 34.8381 146.035 35.0653 147.114 35.0653C148.175 35.0653 149.027 34.8617 149.671 34.4545C150.325 34.0379 150.656 33.5028 150.666 32.8494C150.656 32.3002 150.424 31.8504 149.969 31.5C149.515 31.1401 148.814 30.8655 147.867 30.6761L144.089 29.9233C141.958 29.4972 140.372 28.7585 139.33 27.7074C138.298 26.6562 137.782 25.3163 137.782 23.6875C137.782 22.286 138.161 21.0786 138.918 20.0653C139.685 19.0521 140.76 18.2708 142.143 17.7216C143.535 17.1723 145.164 16.8977 147.029 16.8977C149.785 16.8977 151.953 17.4801 153.535 18.6449C155.126 19.8097 156.054 21.3958 156.319 23.4034Z" fill="white"/>
<path d="M50.9745 39V9.90909H70.2358V14.9801H57.125V21.9119H68.9574V26.983H57.125V39H50.9745ZM73.9077 39V17.1818H79.7742V20.9886H80.0014C80.3992 19.6345 81.0668 18.6117 82.0043 17.9205C82.9418 17.2197 84.0213 16.8693 85.2429 16.8693C85.5459 16.8693 85.8727 16.8883 86.223 16.9261C86.5734 16.964 86.8812 17.0161 87.1463 17.0824V22.4517C86.8622 22.3665 86.4692 22.2907 85.9674 22.2244C85.4655 22.1581 85.0062 22.125 84.5895 22.125C83.6994 22.125 82.9039 22.3191 82.2031 22.7074C81.5119 23.0862 80.9626 23.6165 80.5554 24.2983C80.1577 24.9801 79.9588 25.7661 79.9588 26.6562V39H73.9077ZM95.8715 39.4119C94.4794 39.4119 93.2389 39.1705 92.1499 38.6875C91.0609 38.1951 90.1991 37.4706 89.5647 36.5142C88.9397 35.5483 88.6272 34.3456 88.6272 32.9062C88.6272 31.6941 88.8497 30.6761 89.2948 29.8523C89.7398 29.0284 90.3459 28.3655 91.1129 27.8636C91.88 27.3617 92.7512 26.983 93.7266 26.7273C94.7114 26.4716 95.7436 26.2917 96.8232 26.1875C98.0921 26.0549 99.1148 25.9318 99.8914 25.8182C100.668 25.6951 101.231 25.5151 101.582 25.2784C101.932 25.0417 102.107 24.6913 102.107 24.2273V24.142C102.107 23.2424 101.823 22.5464 101.255 22.054C100.696 21.5616 99.9008 21.3153 98.8686 21.3153C97.7796 21.3153 96.9131 21.5568 96.2692 22.0398C95.6253 22.5133 95.1991 23.1098 94.9908 23.8295L89.3942 23.375C89.6783 22.0492 90.237 20.9034 91.0703 19.9375C91.9037 18.9621 92.9785 18.214 94.2948 17.6932C95.6205 17.1629 97.1546 16.8977 98.897 16.8977C100.109 16.8977 101.269 17.0398 102.377 17.3239C103.495 17.608 104.484 18.0483 105.346 18.6449C106.217 19.2415 106.904 20.0085 107.406 20.946C107.907 21.8741 108.158 22.9867 108.158 24.2841V39H102.42V35.9744H102.249C101.899 36.6562 101.43 37.2576 100.843 37.7784C100.256 38.2898 99.5504 38.6922 98.7266 38.9858C97.9027 39.2699 96.951 39.4119 95.8715 39.4119ZM97.6044 35.2358C98.4946 35.2358 99.2806 35.0606 99.9624 34.7102C100.644 34.3504 101.179 33.8674 101.567 33.2614C101.956 32.6553 102.15 31.9687 102.15 31.2017V28.8864C101.96 29.0095 101.7 29.1231 101.369 29.2273C101.047 29.322 100.682 29.4119 100.275 29.4972C99.8677 29.5729 99.4605 29.6439 99.0533 29.7102C98.6461 29.767 98.2768 29.8191 97.9453 29.8665C97.2351 29.9706 96.6148 30.1364 96.0845 30.3636C95.5542 30.5909 95.1423 30.8987 94.8487 31.2869C94.5552 31.6657 94.4084 32.1392 94.4084 32.7074C94.4084 33.5312 94.7067 34.161 95.3033 34.5966C95.9093 35.0227 96.6764 35.2358 97.6044 35.2358ZM122.683 47.6364C120.722 47.6364 119.041 47.3665 117.64 46.8267C116.248 46.2964 115.14 45.572 114.316 44.6534C113.492 43.7348 112.957 42.7026 112.711 41.5568L118.308 40.804C118.478 41.2396 118.748 41.6468 119.117 42.0256C119.487 42.4044 119.974 42.7074 120.58 42.9347C121.196 43.1714 121.944 43.2898 122.825 43.2898C124.141 43.2898 125.225 42.9678 126.077 42.3239C126.939 41.6894 127.37 40.6241 127.37 39.1278V35.1364H127.114C126.849 35.7424 126.451 36.3153 125.921 36.8551C125.391 37.3949 124.709 37.8352 123.876 38.1761C123.042 38.517 122.048 38.6875 120.893 38.6875C119.255 38.6875 117.763 38.3087 116.418 37.5511C115.083 36.7841 114.018 35.6146 113.222 34.0426C112.436 32.4612 112.043 30.4631 112.043 28.0483C112.043 25.5767 112.446 23.5123 113.251 21.8551C114.056 20.1979 115.126 18.9574 116.461 18.1335C117.806 17.3097 119.278 16.8977 120.879 16.8977C122.1 16.8977 123.123 17.1061 123.947 17.5227C124.771 17.9299 125.433 18.4413 125.935 19.0568C126.447 19.6629 126.84 20.2595 127.114 20.8466H127.342V17.1818H133.35V39.2131C133.35 41.0691 132.896 42.6222 131.987 43.8722C131.077 45.1222 129.818 46.0597 128.208 46.6847C126.608 47.3191 124.766 47.6364 122.683 47.6364ZM122.81 34.142C123.786 34.142 124.61 33.9006 125.282 33.4176C125.964 32.9252 126.485 32.2244 126.844 31.3153C127.214 30.3968 127.398 29.2983 127.398 28.0199C127.398 26.7415 127.219 25.6335 126.859 24.696C126.499 23.7491 125.978 23.0151 125.296 22.4943C124.614 21.9735 123.786 21.7131 122.81 21.7131C121.816 21.7131 120.978 21.983 120.296 22.5227C119.614 23.053 119.098 23.7917 118.748 24.7386C118.398 25.6856 118.222 26.7794 118.222 28.0199C118.222 29.2794 118.398 30.3684 118.748 31.2869C119.108 32.196 119.624 32.9015 120.296 33.4034C120.978 33.8958 121.816 34.142 122.81 34.142ZM156.319 23.4034L150.779 23.7443C150.684 23.2708 150.481 22.8447 150.168 22.4659C149.856 22.0776 149.444 21.7699 148.933 21.5426C148.431 21.3059 147.829 21.1875 147.129 21.1875C146.191 21.1875 145.4 21.3864 144.756 21.7841C144.112 22.1723 143.79 22.6932 143.79 23.3466C143.79 23.8674 143.999 24.3078 144.415 24.6676C144.832 25.0275 145.547 25.3163 146.56 25.5341L150.509 26.3295C152.63 26.7651 154.212 27.4659 155.254 28.4318C156.295 29.3977 156.816 30.6667 156.816 32.2386C156.816 33.6686 156.395 34.9233 155.552 36.0028C154.719 37.0824 153.573 37.9252 152.114 38.5312C150.665 39.1278 148.994 39.4261 147.1 39.4261C144.212 39.4261 141.911 38.8248 140.197 37.6222C138.492 36.41 137.493 34.7623 137.2 32.679L143.151 32.3665C143.331 33.2472 143.767 33.9195 144.458 34.3835C145.149 34.8381 146.035 35.0653 147.114 35.0653C148.175 35.0653 149.027 34.8617 149.671 34.4545C150.325 34.0379 150.656 33.5028 150.666 32.8494C150.656 32.3002 150.424 31.8504 149.969 31.5C149.515 31.1401 148.814 30.8655 147.867 30.6761L144.089 29.9233C141.958 29.4972 140.372 28.7585 139.33 27.7074C138.298 26.6562 137.782 25.3163 137.782 23.6875C137.782 22.286 138.161 21.0786 138.918 20.0653C139.685 19.0521 140.76 18.2708 142.143 17.7216C143.535 17.1723 145.164 16.8977 147.029 16.8977C149.785 16.8977 151.953 17.4801 153.535 18.6449C155.126 19.8097 156.054 21.3958 156.319 23.4034Z" fill="white"/>
</svg>
