<svg width="92" height="24" viewBox="0 0 92 24" fill="none" xmlns="http://www.w3.org/2000/svg">
<path d="M13.5875 5.37589C14.4271 5.07341 15.2854 4.84037 16.1627 4.67691C16.6553 4.58518 17.1457 4.5637 17.6339 4.6126C18.2218 4.67096 18.6812 4.81673 19.0119 5.04977C19.483 5.38184 19.726 5.87817 19.7407 6.53865C19.7488 6.90476 19.659 7.32748 19.4712 7.8068C19.1494 8.62628 18.7207 9.38592 18.1852 10.0856C17.7133 10.7003 17.1944 11.2905 16.6287 11.8564C16.622 11.8629 16.6168 11.8706 16.6131 11.8792C16.6095 11.8878 16.6077 11.8969 16.6077 11.9063C16.6077 11.9156 16.6095 11.9248 16.6131 11.9334C16.6168 11.9419 16.622 11.9498 16.6287 11.9562C17.4822 12.7949 18.2167 13.7051 18.8321 14.6867C19.1797 15.2399 19.4338 15.802 19.5943 16.373C19.7392 16.8886 19.7637 17.3445 19.6675 17.741C19.5402 18.2684 19.2456 18.6556 18.7833 18.9027C18.4068 19.1045 17.8842 19.2088 17.2155 19.2155C16.6749 19.2214 16.1379 19.162 15.6046 19.0369C14.9161 18.8749 14.2577 18.6718 13.6297 18.4279C13.6194 18.4237 13.6083 18.4219 13.5971 18.4224C13.586 18.423 13.5751 18.426 13.5651 18.4311C13.5552 18.4362 13.5465 18.4435 13.5394 18.4523C13.5323 18.4611 13.5273 18.4712 13.5243 18.4822C13.3823 19.0132 13.2329 19.5 13.0761 19.9423C12.7699 20.8084 12.3494 21.5665 11.8147 22.2166C11.6393 22.4296 11.4256 22.6165 11.1734 22.777C10.9167 22.9396 10.657 23.0432 10.3946 23.0876C10.0002 23.1542 9.64153 23.0998 9.31825 22.9245C8.81097 22.6486 8.38676 22.2559 8.04578 21.7462C7.82166 21.4105 7.56971 20.9016 7.2902 20.2196C7.06162 19.6626 6.87302 19.0854 6.72428 18.4877C6.72145 18.4761 6.71604 18.4653 6.70861 18.4559C6.70118 18.4466 6.69186 18.4389 6.68119 18.4334C6.67051 18.4279 6.65876 18.4246 6.64674 18.4238C6.63458 18.423 6.62255 18.4247 6.61121 18.4289C5.93519 18.6803 5.27431 18.883 4.62855 19.0369C4.07236 19.1693 3.51199 19.2292 2.94769 19.2167C2.35746 19.2033 1.87882 19.1039 1.51204 18.9182C0.987599 18.6533 0.669179 18.2403 0.55678 17.6789C0.448704 17.1419 0.553808 16.5003 0.871822 15.7539C1.13512 15.1371 1.4961 14.5132 1.95475 13.8823C2.44582 13.2063 2.99606 12.5635 3.60561 11.9539C3.61817 11.9413 3.62533 11.9241 3.62533 11.9063C3.62533 11.8884 3.61817 11.8713 3.60561 11.8586C2.80679 11.0576 2.09862 10.1922 1.48097 9.26245C1.18132 8.81042 0.942882 8.33272 0.765367 7.82895C0.552997 7.22832 0.475452 6.70955 0.532327 6.27238C0.637431 5.46397 1.15066 4.93318 2.07228 4.68029C2.47621 4.56937 3.02159 4.55087 3.70882 4.62476C4.57856 4.71798 5.54869 4.96804 6.61891 5.37481C6.6254 5.37738 6.63228 5.37859 6.63931 5.37832C6.6462 5.37819 6.65309 5.37643 6.6593 5.37346C6.66565 5.37035 6.67119 5.36617 6.67565 5.36076C6.68024 5.35549 6.68348 5.34928 6.68551 5.34266C6.9503 4.47345 7.22697 3.70949 7.5154 3.0505C7.68481 2.66358 7.90367 2.28937 8.17224 1.92759C8.46215 1.53865 8.77165 1.24238 9.10088 1.03893C10.0913 0.428028 11.0161 0.639588 11.8756 1.67361C12.1559 2.01013 12.393 2.37515 12.5869 2.76869C12.9928 3.59182 13.3046 4.44954 13.5221 5.34144C13.5236 5.3482 13.5267 5.35455 13.5309 5.35995C13.5352 5.36549 13.5406 5.36995 13.5467 5.37319C13.5529 5.37657 13.5598 5.37846 13.5669 5.37886C13.5739 5.37927 13.5809 5.37832 13.5875 5.37589ZM7.37004 5.66432C8.30355 6.07271 9.2026 6.51231 10.0672 6.98353C10.0817 6.99136 10.0979 6.99568 10.1148 6.99582C10.1315 6.99595 10.1483 6.99217 10.1637 6.98461L12.8598 5.66662C12.8742 5.65973 12.886 5.64838 12.893 5.63446C12.9 5.62055 12.9021 5.60488 12.8985 5.59002C12.7721 5.01167 12.595 4.4513 12.3672 3.90916C12.1748 3.452 12.005 3.09481 11.8579 2.83745C11.6567 2.4831 11.416 2.16576 11.1357 1.88544C10.487 1.23684 9.82755 1.22941 9.15748 1.86328C8.79056 2.21021 8.50916 2.57591 8.31314 2.96052C7.90488 3.76083 7.57457 4.62881 7.32235 5.56448C7.31681 5.58421 7.3187 5.60528 7.32748 5.62366C7.33626 5.64203 7.3514 5.65648 7.37004 5.66432ZM3.61331 10.8622C3.75313 11.0242 3.90957 11.1915 4.08263 11.3637C4.09546 11.3767 4.11289 11.3843 4.13127 11.3847C4.14964 11.3851 4.1676 11.3783 4.18138 11.366L5.96207 9.81377C5.98923 9.78959 6.00585 9.75622 6.00868 9.72055C6.11081 8.55198 6.27766 7.35747 6.50907 6.13702C6.51245 6.11878 6.50935 6.10014 6.50043 6.08406C6.49152 6.06812 6.47733 6.05582 6.46031 6.04934C5.55639 5.68985 4.61153 5.44614 3.6256 5.31821C3.0582 5.24498 2.54052 5.27268 2.07228 5.40142C1.62552 5.52423 1.34222 5.77712 1.22239 6.16025C1.13809 6.4295 1.14958 6.77305 1.25684 7.19103C1.3456 7.53498 1.47543 7.86556 1.64632 8.1829C2.06782 8.96389 2.57375 9.68394 3.16398 10.3431C3.23653 10.4236 3.38635 10.5968 3.61331 10.8622ZM18.2884 5.45019C18.0413 5.34293 17.7766 5.28713 17.4941 5.28268C17.0488 5.27525 16.7251 5.28713 16.5233 5.31821C15.5913 5.461 14.6705 5.70687 13.7606 6.05596C13.7449 6.06217 13.7318 6.07379 13.7237 6.08879C13.7156 6.10379 13.7129 6.12121 13.7163 6.1381C13.9655 7.32599 14.1356 8.52685 14.2267 9.74055C14.2276 9.75919 14.2329 9.77784 14.2421 9.7954C14.2513 9.81283 14.2641 9.82904 14.2799 9.84268L16.0273 11.3482C16.0475 11.3657 16.0733 11.3752 16.0994 11.3748C16.1256 11.3744 16.1502 11.3641 16.1683 11.346C17.1016 10.4095 17.8853 9.39957 18.5192 8.31597C18.7218 7.96918 18.8908 7.52674 19.0262 6.98906C19.129 6.58 19.0879 6.23091 18.9031 5.94167C18.7707 5.73457 18.5658 5.57083 18.2884 5.45019ZM9.36715 7.3907C8.64885 6.99649 7.92771 6.64444 7.2036 6.33453C7.19752 6.33183 7.1909 6.33061 7.18415 6.33088C7.17753 6.33115 7.17091 6.33291 7.16496 6.33601C7.15915 6.33912 7.15388 6.34344 7.14983 6.34871C7.14578 6.35398 7.14294 6.3602 7.14146 6.36668C6.94111 7.25493 6.80129 8.19438 6.72212 9.18477C6.71847 9.23651 6.73725 9.2465 6.77873 9.21462C7.53458 8.63925 8.32868 8.10563 9.16073 7.61374C9.25178 7.55971 9.32311 7.49648 9.37485 7.42393C9.37674 7.42137 9.37796 7.4184 9.3785 7.41516C9.37904 7.41205 9.37904 7.40881 9.37823 7.4057C9.37755 7.40259 9.37621 7.39962 9.37431 7.39705C9.37229 7.39448 9.36985 7.39232 9.36715 7.3907ZM10.8594 7.45501C11.7558 8.00093 12.6182 8.58116 13.4466 9.19585C13.5073 9.24097 13.5343 9.22584 13.5277 9.15032C13.447 8.23978 13.3057 7.31559 13.1039 6.37776C13.1021 6.37033 13.0989 6.3633 13.0942 6.35736C13.0896 6.35128 13.0836 6.34642 13.0769 6.3429C13.0701 6.33939 13.0627 6.3375 13.055 6.33709C13.0474 6.33682 13.0399 6.33818 13.0328 6.34115C12.2998 6.64889 11.5757 6.99947 10.8605 7.39286C10.8548 7.39584 10.8502 7.40029 10.8468 7.4057C10.8435 7.4111 10.8417 7.41732 10.8416 7.42367C10.8414 7.43002 10.8431 7.43623 10.8462 7.44177C10.8493 7.44731 10.8539 7.4519 10.8594 7.45501ZM13.5366 10.1333C12.4685 9.29311 11.3431 8.52753 10.1604 7.83665C10.1483 7.82936 10.1344 7.8253 10.12 7.82517C10.1059 7.8249 10.0918 7.82855 10.0794 7.83557C8.89229 8.52861 7.761 9.30311 6.68551 10.1588C6.67186 10.1697 6.66065 10.1834 6.65268 10.1988C6.64458 10.2143 6.63998 10.2314 6.6389 10.2488C6.57905 11.2879 6.57568 12.3796 6.6289 13.5239C6.63066 13.561 6.64052 13.5974 6.65768 13.6303C6.67497 13.6633 6.69929 13.6921 6.72874 13.7148C7.78424 14.5172 8.89486 15.2669 10.0606 15.9636C10.0803 15.9753 10.1029 15.9815 10.1257 15.9815C10.1487 15.9815 10.171 15.9753 10.1903 15.9636C11.3701 15.2573 12.4881 14.4987 13.5443 13.6882C13.562 13.6745 13.5766 13.6574 13.5869 13.6376C13.5973 13.6178 13.6032 13.596 13.6043 13.5739C13.662 12.4614 13.6622 11.359 13.6054 10.2665C13.6043 10.2408 13.5975 10.2155 13.5856 10.1926C13.5737 10.1695 13.557 10.1493 13.5366 10.1333ZM4.69177 11.9462L5.90007 13.0413C5.9437 13.0812 5.96397 13.0712 5.961 13.0113C5.92182 12.2834 5.92141 11.5601 5.95992 10.8412C5.96437 10.7569 5.93587 10.7424 5.87453 10.7979L4.69069 11.8652C4.68502 11.8705 4.68056 11.8767 4.67759 11.8837C4.67448 11.8907 4.673 11.8983 4.67313 11.906C4.67327 11.9136 4.67489 11.9211 4.67813 11.9281C4.68137 11.935 4.68596 11.9412 4.69177 11.9462ZM15.3827 11.6711C15.0572 11.3767 14.71 11.0812 14.341 10.7846C14.2935 10.7469 14.2718 10.7584 14.2754 10.819C14.3214 11.5438 14.321 12.2743 14.2744 13.0103C14.2707 13.0671 14.2899 13.0771 14.332 13.0401L15.5625 11.9529C15.5745 11.9421 15.5821 11.9271 15.5833 11.9107C15.5845 11.8944 15.5794 11.8782 15.5691 11.8652C15.5129 11.7972 15.4508 11.7325 15.3827 11.6711ZM5.91331 13.9421L4.18247 12.4377C4.16923 12.4264 4.1522 12.4203 4.13491 12.4207C4.11762 12.4211 4.10141 12.428 4.08938 12.4399C3.26166 13.2698 2.54416 14.1656 1.93691 15.1271C1.74683 15.4289 1.59593 15.7058 1.48434 15.958C1.33344 16.2975 1.23577 16.5993 1.19132 16.8634C1.05082 17.7066 1.38329 18.2233 2.18873 18.4134C2.66224 18.5258 3.14074 18.5505 3.62452 18.4877C4.58005 18.3627 5.5291 18.1179 6.47139 17.7532C6.49138 17.7455 6.50813 17.7309 6.51826 17.712C6.5284 17.6929 6.5315 17.671 6.52691 17.6501C6.27766 16.5354 6.11338 15.3786 6.03422 14.1796C6.03138 14.1353 6.01936 14.0916 5.99855 14.0508C5.97775 14.01 5.94884 13.9731 5.91331 13.9421ZM13.7795 17.761C14.7737 18.1418 15.7836 18.3875 16.8095 18.4977C17.3664 18.5575 17.8165 18.5284 18.1597 18.41C18.9438 18.1386 19.2282 17.5846 19.013 16.7481C18.8331 16.0506 18.5388 15.4052 18.1298 14.812C17.5388 13.9532 16.883 13.1693 16.1627 12.4599C16.1462 12.4434 16.1238 12.4339 16.0999 12.4335C16.0761 12.433 16.0525 12.4418 16.034 12.4577L14.291 13.9655C14.2639 13.989 14.2469 14.0216 14.2433 14.0564C14.1345 15.2392 13.9636 16.4452 13.7307 17.6744C13.7276 17.6923 13.7309 17.7106 13.7398 17.7264C13.7487 17.7421 13.7626 17.7544 13.7795 17.761ZM9.38161 16.362C8.46877 15.8058 7.60605 15.2192 6.79318 14.6024C6.73171 14.5557 6.70442 14.5709 6.71104 14.6477C6.79534 15.5502 6.93733 16.4836 7.13713 17.4481C7.13848 17.4553 7.14146 17.4621 7.14578 17.468C7.15024 17.4738 7.15578 17.4787 7.16226 17.4819C7.16875 17.4853 7.17577 17.487 7.18293 17.4872C7.19009 17.4873 7.19725 17.4857 7.2036 17.4825L9.38039 16.4186C9.41592 16.4016 9.41633 16.3826 9.38161 16.362ZM10.8605 16.4186C11.581 16.8149 12.3024 17.164 13.0251 17.4658C13.0315 17.4685 13.0384 17.4699 13.0454 17.4698C13.0523 17.4696 13.059 17.468 13.0652 17.465C13.0713 17.4621 13.0767 17.4579 13.0809 17.4526C13.0851 17.4473 13.0879 17.4412 13.0894 17.4348C13.3113 16.5169 13.4536 15.5872 13.5166 14.6456C13.5196 14.6094 13.5058 14.6011 13.4755 14.6211L10.8594 16.3564C10.854 16.3598 10.8497 16.3645 10.8466 16.3702C10.8436 16.3758 10.8421 16.3821 10.8421 16.3883C10.8423 16.3947 10.844 16.4007 10.8473 16.406C10.8505 16.4113 10.855 16.4156 10.8605 16.4186ZM12.8719 18.1527L10.166 16.8268C10.1498 16.8193 10.1325 16.8155 10.1156 16.8156C10.0986 16.8159 10.0823 16.8201 10.0683 16.8279C9.19477 17.3102 8.29652 17.7403 7.37342 18.1182C7.35869 18.1242 7.34653 18.135 7.3391 18.1487C7.33154 18.1625 7.32924 18.1785 7.33235 18.1937C7.5897 19.4038 8.06537 20.5195 8.75909 21.541C9.02387 21.9315 9.36823 22.2 9.79202 22.3464C10.0125 22.4226 10.2299 22.4271 10.4444 22.3598C10.6722 22.2881 10.8701 22.1757 11.038 22.0225C11.3316 21.7555 11.5961 21.4116 11.8313 20.9907C12.3002 20.1496 12.6604 19.2318 12.9119 18.237C12.9162 18.2207 12.9146 18.2035 12.9073 18.1881C12.9 18.1727 12.8875 18.1602 12.8719 18.1527Z" fill="#717383"/>
<path d="M24.6983 5.53624C24.6777 6.44543 25.3711 7.19845 26.2471 7.21831C27.1232 7.23817 27.85 6.51743 27.8706 5.60824C27.8913 4.69919 27.1979 3.94617 26.3218 3.92631C25.4458 3.90632 24.719 4.62718 24.6983 5.53624Z" fill="#717383"/>
<path d="M68.3972 5.55967C68.3892 6.46954 69.0936 7.21337 69.9703 7.22107C70.8472 7.22864 71.5645 6.49723 71.5724 5.58736C71.5803 4.6775 70.876 3.93366 69.9991 3.92596C69.1224 3.9184 68.4051 4.6498 68.3972 5.55967Z" fill="#717383"/>
<path d="M35.9144 17.8131C34.8589 18.6349 33.6925 18.8801 32.4151 18.5487C31.441 18.2958 30.6573 17.7935 30.0641 17.0421C29.6373 16.5013 29.323 15.8379 29.1211 15.0516C28.7365 13.5523 28.9517 12.1418 29.7667 10.82C30.0922 10.292 30.468 9.87153 30.894 9.55865C31.3682 9.21105 31.8937 8.97207 32.4705 8.84184C33.0571 8.70945 33.6311 8.70215 34.1925 8.81968C34.7695 8.94032 35.3056 9.18282 35.8013 9.54758C35.8367 9.57419 35.8545 9.56528 35.8545 9.52096V4.56932C35.8545 4.55459 35.8603 4.54054 35.8707 4.53014C35.8812 4.51974 35.8953 4.51379 35.9099 4.51379H38.2399C38.2546 4.51379 38.2687 4.51974 38.2791 4.53014C38.2895 4.54054 38.2953 4.55459 38.2953 4.56932V18.3989C38.2953 18.4113 38.2929 18.4236 38.2881 18.4351C38.2834 18.4464 38.2765 18.4568 38.2677 18.4656C38.259 18.4744 38.2486 18.4813 38.2371 18.486C38.2257 18.4907 38.2134 18.4933 38.201 18.4933H36.0597C36.035 18.4933 36.0114 18.4832 35.9938 18.4653C35.9764 18.4474 35.9665 18.4232 35.9665 18.3978L35.9599 17.8353C35.9599 17.7976 35.9448 17.7903 35.9144 17.8131ZM32.0001 11.9462C31.5172 12.5424 31.3112 13.2273 31.3822 14.001C31.4503 14.737 31.7276 15.312 32.2143 15.7262C32.7432 16.1767 33.3072 16.3664 33.9063 16.2953C34.6829 16.2022 35.3056 15.8583 35.7746 15.2636C35.8263 15.1974 35.8545 15.1162 35.8545 15.0328V12.3823C35.8545 12.3219 35.8337 12.2633 35.7958 12.2158C35.3135 11.6122 34.7043 11.2546 33.9683 11.1429C33.1865 11.0246 32.5305 11.2923 32.0001 11.9462Z" fill="#717383"/>
<path d="M64.3256 8.91746L67.1682 8.92408C67.1847 8.92408 67.2005 8.93057 67.2121 8.94205C67.2237 8.9534 67.2302 8.96894 67.2302 8.98515L67.2236 11.0521C67.2236 11.0671 67.2178 11.0816 67.2074 11.0921C67.1969 11.1028 67.1828 11.1087 67.1682 11.1087H64.3533C64.3414 11.1087 64.3296 11.111 64.3186 11.1156C64.3075 11.1201 64.2975 11.1267 64.289 11.1351C64.2806 11.1434 64.2739 11.1533 64.2693 11.1642C64.2647 11.175 64.2624 11.1868 64.2624 11.1985C64.2624 12.345 64.2635 13.473 64.2658 14.5824C64.2658 14.8495 64.2912 15.1143 64.3423 15.3769C64.408 15.7186 64.5668 15.9759 64.8182 16.1491C65.0112 16.2822 65.2824 16.3599 65.6315 16.382C65.9688 16.4027 66.3113 16.3761 66.6589 16.3022C66.6726 16.2993 66.687 16.2992 66.7007 16.302C66.7145 16.3047 66.7276 16.3103 66.7392 16.3182C66.7509 16.3264 66.7607 16.3365 66.7683 16.3485C66.7759 16.3604 66.7809 16.3736 66.7832 16.3876L67.1203 18.4202C67.1237 18.4392 67.1197 18.4588 67.1089 18.475C67.0982 18.4913 67.0817 18.503 67.0627 18.5077C66.0989 18.7444 65.157 18.7363 64.2369 18.4834C63.3086 18.2282 62.6537 17.7023 62.2721 16.9058C61.9894 16.3139 61.8481 15.6136 61.8481 14.8044C61.8489 13.649 61.8493 12.4493 61.8493 11.2052C61.8493 11.1814 61.8398 11.1586 61.823 11.1417C61.8061 11.1248 61.7833 11.1153 61.7594 11.1153H59.4161C59.3997 11.1153 59.3839 11.109 59.3722 11.0975C59.3606 11.086 59.3541 11.0705 59.3541 11.0543L59.3718 9.00068C59.3721 8.98528 59.3784 8.97055 59.3894 8.95988C59.4005 8.94907 59.4152 8.943 59.4306 8.943L61.7717 8.9253C61.7818 8.9253 61.7919 8.92327 61.8014 8.91936C61.8107 8.91557 61.8193 8.9099 61.8265 8.90287C61.8338 8.89571 61.8395 8.88734 61.8434 8.87802C61.8473 8.8687 61.8493 8.8587 61.8493 8.8487V6.34457C61.8493 6.32985 61.8551 6.3158 61.8655 6.3054C61.876 6.295 61.89 6.28918 61.9047 6.28918H64.2013C64.2176 6.28918 64.2331 6.29567 64.2446 6.30729C64.2559 6.31891 64.2624 6.33471 64.2624 6.35119L64.269 8.86315C64.269 8.87747 64.275 8.89139 64.2857 8.90152C64.2962 8.91179 64.3106 8.91746 64.3256 8.91746Z" fill="#717383"/>
<path d="M77.2504 8.91746L80.0808 8.92408C80.1005 8.92408 80.1194 8.93192 80.1334 8.94597C80.1473 8.95988 80.1551 8.9788 80.1551 8.99852V11.0532C80.1551 11.0698 80.1484 11.0857 80.1363 11.0975C80.1243 11.1094 80.108 11.1161 80.0908 11.1164L77.2627 11.1342C77.248 11.1345 77.2341 11.1406 77.2238 11.1511C77.2134 11.1617 77.2075 11.1759 77.2072 11.1908C77.1836 12.1915 77.1769 13.1927 77.1872 14.1941C77.1931 14.7474 77.2272 15.162 77.2893 15.4378C77.3617 15.7575 77.519 15.9982 77.7608 16.1602C77.9443 16.2837 78.2027 16.3565 78.5364 16.3788C78.8906 16.4024 79.2516 16.3765 79.6192 16.3011C79.6281 16.2992 79.6373 16.2992 79.6462 16.301C79.6551 16.3026 79.6636 16.3061 79.6711 16.3111C79.6785 16.316 79.6848 16.3224 79.6897 16.3299C79.6944 16.3373 79.6977 16.3455 79.6992 16.3543L80.043 18.4179C80.0455 18.4329 80.0423 18.4482 80.0342 18.461C80.026 18.4738 80.0134 18.4834 79.9987 18.4879C79.023 18.7667 78.0756 18.7627 77.1561 18.4756C76.5437 18.284 76.0578 17.9971 75.6983 17.6146C75.2975 17.1864 75.0355 16.6564 74.9129 16.0248C74.8226 15.561 74.7778 15.1264 74.7786 14.7212C74.7793 13.5399 74.7756 12.359 74.7675 11.1786C74.7675 11.1638 74.7616 11.1495 74.7509 11.139C74.7403 11.1284 74.726 11.1224 74.7109 11.1219L72.3543 11.0953C72.3466 11.0953 72.339 11.094 72.3319 11.0911C72.3247 11.0883 72.3182 11.0843 72.3128 11.0791C72.3073 11.074 72.303 11.0679 72.3 11.0612C72.297 11.0544 72.2955 11.0472 72.2955 11.0399V8.9996C72.2958 8.98447 72.3023 8.97002 72.3135 8.95948C72.3247 8.94894 72.3397 8.943 72.3555 8.943L74.6964 8.9253C74.7171 8.9253 74.7368 8.91719 74.7514 8.90287C74.7659 8.88842 74.7741 8.86897 74.7741 8.8487V6.34457C74.7741 6.33728 74.7756 6.33012 74.7783 6.32336C74.7811 6.31661 74.7852 6.31053 74.7903 6.3054C74.7955 6.30026 74.8017 6.29608 74.8083 6.29337C74.8151 6.29054 74.8224 6.28918 74.8297 6.28918H77.1263C77.1423 6.28918 77.1579 6.29567 77.1694 6.30729C77.1809 6.31891 77.1872 6.33471 77.1872 6.35119L77.194 8.86315C77.194 8.87747 77.1999 8.89139 77.2104 8.90152C77.2211 8.91179 77.2354 8.91746 77.2504 8.91746Z" fill="#717383"/>
<path d="M40.7723 10.1188C41.2989 9.53009 41.918 9.12845 42.6296 8.91392C43.3286 8.70384 44.0371 8.68399 44.7553 8.85407C45.3204 8.98795 45.8315 9.23612 46.2886 9.59845C46.7065 9.92983 47.063 10.3551 47.3582 10.8744C47.9358 11.8907 48.1592 13.0316 48.0282 14.2972C48.0264 14.3146 48.0181 14.3307 48.0053 14.3423C47.9923 14.3541 47.9757 14.3604 47.9584 14.3604H41.8961C41.8867 14.3603 41.8774 14.3624 41.8687 14.3665C41.8602 14.3705 41.8526 14.3766 41.8466 14.3841C41.8405 14.3914 41.8362 14.4001 41.8337 14.4095C41.8314 14.4188 41.8312 14.4285 41.8329 14.4381C42.0038 15.3057 42.4103 15.9189 43.0523 16.2776C43.5855 16.5749 44.1691 16.6492 44.803 16.5006C45.4 16.3601 45.9385 16.0417 46.4185 15.5453C46.427 15.5366 46.4372 15.5295 46.4486 15.5249C46.4599 15.5202 46.4721 15.5179 46.4844 15.5182C46.4967 15.5183 46.5087 15.521 46.5199 15.5262C46.5311 15.5312 46.5411 15.5384 46.5494 15.5475L47.7098 16.799C47.8407 16.941 47.8349 17.076 47.6921 17.204C46.5036 18.2691 45.2006 18.7536 43.7834 18.6574C43.1474 18.6144 42.5597 18.4622 42.0204 18.2002C41.4442 17.9207 40.9564 17.535 40.5571 17.0431C40.1073 16.4898 39.7934 15.8275 39.6151 15.056C39.4243 14.2291 39.4184 13.3756 39.5974 12.4953C39.783 11.5811 40.1746 10.789 40.7723 10.1188ZM42.371 11.5523C42.1477 11.8148 42.0075 12.1019 41.9506 12.4133C41.9492 12.4198 41.9495 12.4265 41.9511 12.433C41.9529 12.4395 41.956 12.4456 41.9603 12.4508C41.9646 12.456 41.97 12.4602 41.9762 12.4631C41.9825 12.466 41.9892 12.4676 41.9961 12.4676H45.532C45.5388 12.4677 45.5457 12.4662 45.5521 12.4634C45.5584 12.4606 45.564 12.4564 45.5684 12.4513C45.573 12.446 45.5761 12.4399 45.5779 12.4333C45.5796 12.4268 45.5799 12.4199 45.5786 12.4133C45.4498 11.7328 45.1063 11.265 44.5478 11.0098C44.1706 10.8374 43.7886 10.7986 43.4018 10.8933C43.0053 10.9902 42.6617 11.2099 42.371 11.5523Z" fill="#717383"/>
<path d="M51.9968 9.63186C53.0648 8.81238 54.1906 8.5557 55.374 8.86182C56.1151 9.0542 56.7505 9.41436 57.2801 9.94258C57.9768 10.6386 58.3711 11.5279 58.4627 12.6108C58.4812 12.8231 58.4905 13.0365 58.4905 13.2509C58.495 14.9773 58.4931 16.7037 58.485 18.4301C58.485 18.4453 58.479 18.4599 58.4684 18.4709C58.4578 18.4817 58.4434 18.4878 58.4284 18.4878L56.1539 18.4744C56.1395 18.4744 56.1254 18.4684 56.1151 18.4579C56.1047 18.4474 56.0988 18.4329 56.0985 18.4178C56.0747 16.8061 56.0677 15.1948 56.0773 13.5838C56.0781 13.3537 56.0662 13.1249 56.0419 12.8971C56.0138 12.6404 55.9613 12.4189 55.8843 12.2324C55.6322 11.6237 55.1995 11.2669 54.5863 11.1618C54.1387 11.0849 53.6828 11.1478 53.2183 11.3504C52.773 11.5449 52.395 11.839 52.0843 12.2324C52.0484 12.2785 52.0289 12.3351 52.0289 12.3933V18.4312C52.0289 18.4476 52.0223 18.4634 52.0107 18.4751C51.9991 18.4867 51.9833 18.4933 51.9668 18.4933H49.7178C49.6908 18.4933 49.6649 18.4826 49.6457 18.4637C49.6265 18.4448 49.6158 18.4191 49.6158 18.3922L49.6357 8.99948C49.6361 8.98435 49.6422 8.97003 49.6527 8.95936C49.6633 8.94882 49.6776 8.94288 49.6923 8.94288L51.8448 8.92518C51.8713 8.92518 51.8968 8.93612 51.9157 8.95558C51.9346 8.97516 51.9454 9.00164 51.9457 9.02947L51.9512 9.60971C51.9512 9.64807 51.9664 9.65551 51.9968 9.63186Z" fill="#717383"/>
<path d="M27.462 8.92517H25.1167C25.0903 8.92517 25.069 8.94665 25.069 8.973V18.4456C25.069 18.4719 25.0903 18.4934 25.1167 18.4934H27.462C27.4884 18.4934 27.5097 18.4719 27.5097 18.4456V8.973C27.5097 8.94665 27.4884 8.92517 27.462 8.92517Z" fill="#717383"/>
<path d="M71.1619 8.92395H68.8098C68.7933 8.92395 68.7799 8.93732 68.7799 8.95394V18.4621C68.7799 18.4787 68.7933 18.4921 68.8098 18.4921H71.1619C71.1784 18.4921 71.1919 18.4787 71.1919 18.4621V8.95394C71.1919 8.93732 71.1784 8.92395 71.1619 8.92395Z" fill="#717383"/>
<path d="M86.2248 14.5246L88.5803 8.99609C88.5868 8.98056 88.5975 8.96718 88.6109 8.95772C88.6242 8.9484 88.6398 8.94313 88.6557 8.94286L91.0988 8.92503C91.1092 8.92503 91.1193 8.92746 91.1284 8.93232C91.1376 8.93719 91.1454 8.94422 91.1512 8.95286C91.157 8.96151 91.1605 8.9715 91.1617 8.98191C91.1628 8.99231 91.1615 9.00298 91.1576 9.01271L85.4138 23.1253C85.4037 23.1499 85.3866 23.171 85.3644 23.1858C85.3422 23.2005 85.3162 23.2085 85.2896 23.2085H82.902C82.8934 23.2085 82.8849 23.2065 82.8772 23.2024C82.8695 23.1984 82.863 23.1926 82.8581 23.1854C82.8531 23.1781 82.85 23.1699 82.8489 23.1611C82.848 23.1523 82.8491 23.1435 82.852 23.1353L84.9013 17.5945C84.9121 17.5646 84.917 17.5328 84.9155 17.5007C84.9139 17.4687 84.906 17.4372 84.8924 17.4081L80.9549 8.98055C80.9525 8.97515 80.9514 8.96921 80.9519 8.9634C80.9523 8.95745 80.9542 8.95178 80.9575 8.94692C80.9607 8.94192 80.965 8.93786 80.9702 8.93503C80.9753 8.93219 80.9811 8.9307 80.987 8.93057L83.5144 8.92395C83.5399 8.92395 83.5649 8.93138 83.5865 8.94543C83.6082 8.95934 83.6255 8.9792 83.6364 9.00271L86.1782 14.5246C86.1946 14.5593 86.2101 14.5593 86.2248 14.5246Z" fill="#717383"/>
<path d="M8.1988 11.0244C8.20177 10.8484 8.20434 10.6726 8.20664 10.4974C8.21028 10.2667 8.23284 10.0939 8.27432 9.97932C8.40671 9.61686 8.68771 9.44556 9.11745 9.46556C9.29794 9.47447 9.39223 9.47893 9.40047 9.47893C9.99219 9.47893 10.5839 9.47893 11.1756 9.47893C11.4034 9.47893 11.5773 9.51851 11.6971 9.59754C11.8774 9.7167 11.98 9.88057 12.0043 10.0892C12.0339 10.3472 12.0417 10.636 12.0277 10.9557C12.0267 10.9802 12.0346 11.0044 12.05 11.0236C12.0652 11.0427 12.0868 11.0556 12.1109 11.06C12.3763 11.1109 12.5787 11.2086 12.7177 11.3528C12.8531 11.4933 12.9186 11.6885 12.9142 11.9386C12.9061 12.4039 12.6371 12.6704 12.1075 12.7385C12.092 12.7403 12.0777 12.7476 12.0668 12.7589C12.056 12.7703 12.0497 12.785 12.0487 12.8007C12.0354 13.0071 12.0298 13.3051 12.0321 13.6948C12.0336 14.0188 11.9219 14.2574 11.6971 14.4104C11.5558 14.5066 11.3246 14.5547 11.0036 14.5547C10.5347 14.5547 10.0661 14.5547 9.59785 14.5547C9.14298 14.5547 8.89859 14.5518 8.86455 14.5458C8.56423 14.4941 8.36497 14.3217 8.26648 14.0288C8.22514 13.9053 8.20434 13.6993 8.20434 13.4109C8.20434 13.2134 8.20434 13.0048 8.20434 12.7851C8.20434 12.777 8.20272 12.769 8.19961 12.7615C8.19637 12.754 8.19164 12.7473 8.18583 12.7416C8.17989 12.7359 8.17299 12.7315 8.16529 12.7284C8.15759 12.7254 8.14935 12.7239 8.14111 12.7241C7.95995 12.727 7.80202 12.6845 7.66747 12.5965C7.54534 12.5174 7.45037 12.3954 7.38229 12.2304C7.21801 11.8324 7.32352 11.4863 7.6984 11.1919C7.80864 11.1047 7.9563 11.0662 8.14111 11.0766C8.14854 11.0768 8.15598 11.0758 8.16287 11.0732C8.16976 11.0708 8.1761 11.067 8.18151 11.0621C8.18678 11.0572 8.1911 11.0514 8.19407 11.045C8.19718 11.0385 8.19867 11.0314 8.1988 11.0244ZM11.3361 10.2733C11.3361 10.2601 11.3334 10.2469 11.3284 10.2348C11.3233 10.2225 11.3158 10.2114 11.3064 10.202C11.2971 10.1926 11.2859 10.1852 11.2736 10.1802C11.2614 10.1751 11.2483 10.1725 11.2349 10.1725L8.996 10.1764C8.98276 10.1766 8.96965 10.1791 8.9575 10.1843C8.9452 10.1893 8.93413 10.1968 8.92467 10.2061C8.91535 10.2156 8.90791 10.2267 8.90292 10.239C8.89778 10.2513 8.89522 10.2644 8.89522 10.2776L8.89819 11.9329C8.89819 11.9462 8.90076 11.9593 8.90589 11.9716C8.91102 11.9839 8.91845 11.9949 8.92791 12.0043C8.93723 12.0137 8.94845 12.021 8.9606 12.0262C8.9729 12.0312 8.986 12.0337 8.99924 12.0337L11.2382 12.0298C11.2514 12.0298 11.2646 12.0272 11.2768 12.0221C11.2891 12.017 11.3002 12.0095 11.3095 12.0001C11.319 11.9908 11.3264 11.9795 11.3314 11.9674C11.3364 11.9551 11.3391 11.942 11.339 11.9287L11.3361 10.2733ZM8.14557 12.0174C8.153 12.0193 8.1607 12.0195 8.16813 12.0179C8.17556 12.0164 8.18245 12.0132 8.1884 12.0086C8.19434 12.0039 8.19907 11.9981 8.20231 11.9913C8.20542 11.9845 8.20691 11.9771 8.20664 11.9697C8.19772 11.73 8.14409 11.6953 8.04574 11.8654C8.00278 11.9393 8.03614 11.9899 8.14557 12.0174ZM12.0498 11.9774C12.0883 12.0551 12.1305 12.0574 12.1763 11.9841C12.2495 11.868 12.2288 11.7947 12.1141 11.7645C12.0985 11.7599 12.0816 11.7615 12.0671 11.7687C12.0527 11.776 12.0417 11.7882 12.0366 11.8032C12.0173 11.8609 12.0217 11.919 12.0498 11.9774ZM11.3376 12.8228C11.3376 12.7963 11.3271 12.7709 11.3083 12.7523C11.2896 12.7335 11.2642 12.723 11.2378 12.723H8.99883C8.97235 12.723 8.94696 12.7335 8.92818 12.7523C8.9094 12.7709 8.89887 12.7963 8.89887 12.8228V13.7593C8.89887 13.7858 8.9094 13.8112 8.92818 13.8298C8.94696 13.8486 8.97235 13.8591 8.99883 13.8591H11.2378C11.2642 13.8591 11.2896 13.8486 11.3083 13.8298C11.3271 13.8112 11.3376 13.7858 11.3376 13.7593V12.8228Z" fill="#717383"/>
</svg>
