<svg width="93" height="18" viewBox="0 0 93 18" fill="none" xmlns="http://www.w3.org/2000/svg">
<mask id="mask0_941_1896" style="mask-type:luminance" maskUnits="userSpaceOnUse" x="-19" y="0" width="112" height="18">
<path d="M92.589 0.585327H-18.9922V17.272H92.589V0.585327Z" fill="white"/>
</mask>
<g mask="url(#mask0_941_1896)">
<path d="M5.91406 17.0848C6.48856 17.1727 7.06893 17.2178 7.65003 17.2195C8.19604 17.2176 8.74117 17.1726 9.27999 17.0848L9.64909 5.88613L13.2275 13.6902C13.4621 13.7342 13.6989 13.7646 13.937 13.7812C14.1646 13.7963 14.3938 13.8047 14.6214 13.8047C14.8843 13.8047 15.1473 13.793 15.4102 13.7693C15.6732 13.7475 15.9276 13.7204 16.1738 13.6902L20.0134 6.04469L20.487 17.0848C21.0703 17.1748 21.6598 17.2198 22.25 17.2195C22.8838 17.2167 23.5167 17.1717 24.1445 17.0848L23.2495 0.819606C22.6138 0.726964 21.9721 0.681306 21.3297 0.683068C20.7219 0.67837 20.1148 0.724028 19.5145 0.819606L15.0427 10.1387L10.7009 0.819606C10.0305 0.728286 9.35487 0.682628 8.67819 0.683068C8.0018 0.684977 7.32615 0.730635 6.65564 0.819606L5.91905 17.0848H5.91406ZM5.91406 17.0848C6.48856 17.1727 7.06893 17.2178 7.65003 17.2195C8.19604 17.2176 8.74117 17.1726 9.27999 17.0848L9.64909 5.88613L13.2275 13.6902C13.4621 13.7342 13.6989 13.7646 13.937 13.7812C14.1646 13.7963 14.3938 13.8047 14.6214 13.8047C14.8843 13.8047 15.1473 13.793 15.4102 13.7693C15.6732 13.7475 15.9276 13.7204 16.1738 13.6902L20.0134 6.04469L20.487 17.0848C21.0703 17.1748 21.6598 17.2198 22.25 17.2195C22.8838 17.2167 23.5167 17.1717 24.1445 17.0848L23.2495 0.819606C22.6138 0.726964 21.9721 0.681306 21.3297 0.683068C20.7219 0.67837 20.1148 0.724028 19.5145 0.819606L15.0427 10.1387L10.7009 0.819606C10.0305 0.728286 9.35487 0.682628 8.67819 0.683068C8.0018 0.684977 7.32615 0.730635 6.65564 0.819606L5.91905 17.0848H5.91406Z" fill="#717383"/>
<path d="M33.9467 4.25811L37.0194 13.8234L38.078 17.0848C38.723 17.1755 39.3734 17.2205 40.0246 17.2197C40.728 17.2181 41.4306 17.173 42.1282 17.0848L36.2087 0.819643C35.8059 0.77413 35.4367 0.740364 35.1046 0.716726C34.7727 0.693235 34.4305 0.683105 34.0782 0.683105C33.6754 0.683105 33.3063 0.69485 32.9742 0.716726C32.6421 0.738749 32.2899 0.77413 31.9208 0.819643L25.949 17.0848C26.5856 17.1748 27.2276 17.2199 27.8705 17.2197C28.4794 17.2181 29.0873 17.1708 29.6891 17.078L33.9467 4.25811ZM40.0246 17.2197C40.728 17.2181 41.4306 17.173 42.1282 17.0848L36.2087 0.819643C35.8059 0.77413 35.4367 0.740364 35.1046 0.716726C34.7727 0.693235 34.4305 0.683105 34.0782 0.683105" fill="#717383"/>
<path d="M43.7307 17.0847C44.2879 17.1756 44.8515 17.2207 45.4162 17.2195C45.9885 17.2198 46.56 17.1746 47.1253 17.0847V6.7457L54.491 17.0847C55.0221 17.1703 55.5592 17.2154 56.0973 17.2195C56.6057 17.2141 57.1128 17.169 57.6143 17.0847V0.819424C57.0928 0.72737 56.5643 0.681709 56.0349 0.682883C55.4274 0.685086 54.8207 0.730746 54.2196 0.819424V11.1803L46.9164 0.819424C46.3774 0.730306 45.8324 0.684645 45.2864 0.682883C44.7659 0.685379 44.2468 0.73104 43.7341 0.819424V17.0847H43.7307ZM43.7307 17.0847C44.2879 17.1756 44.8515 17.2207 45.4162 17.2195C45.9885 17.2198 46.56 17.1746 47.1253 17.0847V6.7457L54.491 17.0847C55.0221 17.1703 55.5592 17.2154 56.0973 17.2195C56.6057 17.2141 57.1128 17.169 57.6143 17.0847V0.819424C57.0928 0.72737 56.5643 0.681709 56.0349 0.682883C55.4274 0.685086 54.8207 0.730746 54.2196 0.819424V11.1803L46.9164 0.819424C46.3774 0.730306 45.8324 0.684645 45.2864 0.682883C44.7659 0.685379 44.2468 0.73104 43.7341 0.819424V17.0847H43.7307Z" fill="#717383"/>
<path d="M59.4443 17.0848C60.0014 17.1756 60.5653 17.2207 61.1297 17.2196C61.7022 17.2199 62.2737 17.1747 62.8388 17.0848V6.74583L70.2063 17.0848C70.737 17.1706 71.2733 17.2157 71.8108 17.2196C72.3192 17.2142 72.8265 17.1691 73.3279 17.0848V0.819546C72.807 0.727492 72.2792 0.681831 71.7502 0.683005C71.1428 0.685061 70.536 0.730722 69.9349 0.819546V11.1804L62.6214 0.819546C62.0823 0.730428 61.5365 0.684767 60.9899 0.683005C60.4696 0.685648 59.9505 0.731309 59.4375 0.819546V17.0848H59.4443ZM59.4443 17.0848C60.0014 17.1756 60.5653 17.2207 61.1297 17.2196C61.7022 17.2199 62.2737 17.1747 62.8388 17.0848V6.74583L70.2063 17.0848C70.737 17.1706 71.2733 17.2157 71.8108 17.2196C72.3192 17.2142 72.8265 17.1691 73.3279 17.0848V0.819546C72.807 0.727492 72.2792 0.681831 71.7502 0.683005C71.1428 0.685061 70.536 0.730722 69.9349 0.819546V11.1804L62.6214 0.819546C62.0823 0.730428 61.5365 0.684767 60.9899 0.683005C60.4696 0.685648 59.9505 0.731309 59.4375 0.819546V17.0848H59.4443Z" fill="#717383"/>
<path d="M83.0693 4.25793L86.142 13.8232L87.2022 17.0848C87.847 17.1754 88.4977 17.2204 89.149 17.2195C89.8518 17.2181 90.555 17.173 91.2524 17.0848L85.3347 0.819472C84.93 0.773958 84.5627 0.740336 84.2288 0.718313C83.8951 0.696437 83.5546 0.684692 83.2024 0.684692C82.7996 0.684692 82.4305 0.694822 82.0984 0.718313C81.7664 0.741951 81.414 0.773958 81.0467 0.819472L75.0664 17.0848C75.7024 17.1748 76.3439 17.2198 76.9862 17.2195C77.5952 17.2181 78.203 17.1707 78.805 17.078L83.0625 4.25793H83.0693ZM89.1472 17.2195C89.8503 17.2181 90.555 17.173 91.2524 17.0848L85.3329 0.819472C84.9284 0.773958 84.5609 0.740336 84.2272 0.718313C83.8935 0.696437 83.553 0.684692 83.2007 0.684692" fill="#717383"/>
<path d="M90.711 2.78993C90.6537 2.78993 90.5935 2.78993 90.5319 2.78993H90.156V3.70856H89.8359V1.4718H90.5319C91.0854 1.4718 91.4759 1.58309 91.4759 2.12587C91.4906 2.26403 91.4539 2.40277 91.3731 2.51582C91.2924 2.62887 91.1734 2.7083 91.0384 2.73928L91.5537 3.71194H91.1969L90.711 2.78993ZM90.156 1.75501V2.5101H90.5553C90.893 2.5101 91.1499 2.48308 91.1499 2.13263C91.1499 1.78203 90.8901 1.75501 90.5553 1.75501H90.156Z" fill="#717383"/>
<path d="M90.5794 4.49903C90.202 4.49903 89.8335 4.38715 89.5199 4.1775C89.206 3.96784 88.9614 3.66995 88.8171 3.32126C88.6726 2.97257 88.6349 2.58894 88.7086 2.21881C88.7822 1.84868 88.9638 1.5088 89.2308 1.24189C89.4976 0.97512 89.8379 0.79336 90.2079 0.719804C90.5779 0.646102 90.9611 0.683981 91.3105 0.828303C91.6585 0.972771 91.9565 1.21722 92.1664 1.53112C92.3764 1.84486 92.488 2.21367 92.488 2.59114C92.4865 3.09678 92.2854 3.58171 91.9286 3.93921C91.5704 4.29686 91.0859 4.49815 90.5794 4.49903ZM90.5794 0.959556C90.2578 0.959556 89.9436 1.05484 89.6764 1.23367C89.4088 1.41234 89.2003 1.66634 89.0773 1.96364C88.9541 2.2608 88.9218 2.58791 88.9845 2.90342C89.0475 3.21893 89.2024 3.50874 89.4296 3.73616C89.6573 3.96358 89.9466 4.11848 90.2622 4.18132C90.5779 4.24401 90.9053 4.21185 91.2019 4.08867C91.4999 3.96564 91.7539 3.75716 91.933 3.48966C92.1107 3.22216 92.2061 2.90767 92.2061 2.586C92.2046 2.15568 92.0329 1.74356 91.7275 1.43965C91.4236 1.13588 91.0095 0.96499 90.5794 0.964549V0.959556Z" fill="#717383"/>
</g>
</svg>
