<svg width="61" height="22" viewBox="0 0 61 22" fill="none" xmlns="http://www.w3.org/2000/svg">
<path d="M5.8518 8.83738C5.82349 8.85475 5.81532 8.89939 5.82728 8.97132C5.83706 9.02356 5.83983 9.0682 5.83545 9.10511C5.31633 13.0171 4.77649 16.9147 4.21594 20.7983C4.20952 20.8423 4.18778 20.8825 4.15451 20.9116C4.12125 20.9407 4.07864 20.9568 4.03458 20.9568L0.132561 20.9469C0.113156 20.9469 0.0940399 20.9428 0.0763857 20.9346C0.0588774 20.9264 0.0432676 20.9146 0.0305741 20.8999C0.0180264 20.8851 0.00883269 20.8678 0.0035802 20.8493C-0.00167229 20.8306 -0.00268962 20.8109 0.000374332 20.7918L3.17755 0.825872C3.1844 0.782539 3.20644 0.743145 3.23926 0.714694C3.27224 0.686243 3.31396 0.670777 3.35715 0.670777L7.35226 0.680554C7.40391 0.6807 7.45396 0.699081 7.4935 0.732493C7.53289 0.766051 7.5593 0.812449 7.56776 0.863369C7.8867 2.75514 8.25408 4.55164 8.66976 6.25286C8.80034 6.78293 9.05246 7.41527 9.42568 8.15004C9.73587 8.76064 10.1148 9.26079 10.5621 9.6505C11.0007 10.0315 11.5461 10.3036 12.198 10.4668C13.786 10.8641 15.1206 10.3983 16.2013 9.06922C16.6856 8.47175 17.0754 7.65645 17.3704 6.62346C17.9156 4.70776 18.3308 2.77309 18.6161 0.819308C18.6219 0.778163 18.6425 0.740372 18.674 0.713088C18.7055 0.685804 18.7458 0.670777 18.7875 0.670777H22.843C22.8836 0.670632 22.9228 0.685077 22.9538 0.711485C22.9846 0.737894 23.005 0.774367 23.0113 0.81449L26.1785 20.7527C26.1823 20.7779 26.1807 20.8039 26.1735 20.8284C26.1665 20.853 26.1543 20.8758 26.1377 20.8952C26.1212 20.9146 26.1006 20.9301 26.0774 20.9407C26.0543 20.9514 26.0293 20.9568 26.0039 20.9568H22.1997C22.1379 20.9569 22.0779 20.9345 22.0311 20.8936C21.9842 20.8529 21.9538 20.7964 21.945 20.7347C21.4803 17.3779 21.0258 14.0652 20.5818 10.7966C20.5807 10.7901 20.5356 10.524 20.4463 9.99819C20.3951 9.69456 20.3662 9.38817 20.3598 9.079C20.3564 8.92988 20.3075 8.86846 20.2128 8.89458C20.1918 8.90012 20.1718 8.91296 20.1546 8.93178C20.1376 8.95061 20.1238 8.97497 20.1148 9.00225C19.7633 10.0614 19.2815 10.961 18.6699 11.7012C17.6794 12.9006 16.4544 13.6935 14.9948 14.08C13.9291 14.3607 12.8506 14.4009 11.7588 14.2008C10.358 13.9428 9.1384 13.3131 8.10001 12.3118C7.62101 11.8513 7.21176 11.331 6.87224 10.7509C6.53812 10.1816 6.2682 9.56996 6.06248 8.91573C6.05606 8.89516 6.04497 8.87648 6.03009 8.86087C6.01535 8.84512 5.99697 8.83315 5.97669 8.82556C5.95641 8.81812 5.93467 8.81521 5.91307 8.81725C5.89134 8.81929 5.87047 8.82615 5.8518 8.83738Z" fill="#717383"/>
<path d="M55.1116 20.6632C55.1112 20.7346 55.0858 20.8044 55.0394 20.8611C54.9929 20.9179 54.9282 20.9585 54.8553 20.9766C54.2686 21.1235 53.6869 21.191 53.11 21.1791C51.2705 21.1376 50.0596 20.2609 49.4773 18.5489C49.3108 18.0611 49.2281 17.4625 49.2291 16.7528C49.2313 11.4869 49.2323 6.18028 49.2323 0.832654C49.2323 0.811498 49.2366 0.790634 49.2446 0.771083C49.2526 0.751532 49.2644 0.733878 49.2793 0.718996C49.2942 0.704114 49.3119 0.692295 49.3313 0.684416C49.3507 0.676391 49.3715 0.672453 49.3924 0.672745L52.7932 0.680915C52.834 0.680915 52.8731 0.697258 52.9018 0.726293C52.9305 0.755327 52.9467 0.794866 52.9467 0.83601C52.9467 5.60659 52.9467 10.3534 52.9467 15.0761C52.9467 15.9425 53.0039 16.5086 53.1182 16.7741C53.4012 17.4272 54.0226 17.6764 54.9827 17.5219C55.0025 17.5188 55.0228 17.52 55.042 17.5252C55.0613 17.5306 55.0793 17.54 55.0944 17.5527C55.1096 17.5653 55.1219 17.5813 55.1302 17.5991C55.1385 17.6169 55.1427 17.6361 55.1427 17.6558L55.1116 20.6632Z" fill="#717383"/>
<path d="M29.0716 8.42606C30.2536 7.16881 31.7088 6.44995 33.4373 6.26918C34.4627 6.16252 35.4439 6.2578 36.381 6.555C37.291 6.84447 38.1285 7.31793 38.8938 7.97537C40.4349 9.30104 41.2567 11.071 41.3591 13.2848C41.384 13.8138 41.3966 14.3249 41.3966 14.8179C41.3966 14.8547 41.382 14.89 41.3559 14.9161C41.3299 14.9421 41.2946 14.9567 41.2578 14.9567H30.9622C30.9294 14.9568 30.8971 14.9651 30.8684 14.9809C30.8396 14.9966 30.8151 15.0194 30.7973 15.047C30.7795 15.0744 30.7689 15.1061 30.7663 15.1387C30.7636 15.1714 30.7693 15.2043 30.7826 15.2342C31.1581 16.081 31.6904 16.7238 32.3794 17.1624C33.0019 17.5575 33.7666 17.7692 34.6732 17.7975C36.0284 17.84 37.2709 17.4339 38.4006 16.5795C38.428 16.5588 38.4594 16.5439 38.4928 16.5361C38.5262 16.528 38.5611 16.5272 38.5952 16.5333C38.6294 16.5394 38.6621 16.5524 38.6911 16.5717C38.7203 16.5908 38.7454 16.6157 38.7648 16.6449L40.2685 18.9077C40.309 18.9688 40.3246 19.043 40.3122 19.115C40.2997 19.1871 40.2601 19.2513 40.2015 19.2946C38.9835 20.1851 37.6937 20.7608 36.332 21.022C34.547 21.3638 32.8899 21.1744 31.3605 20.4538C30.345 19.976 29.4813 19.3263 28.7694 18.5044C27.6223 17.1776 27.0438 15.5597 27.0339 13.6505C27.0241 11.625 27.7033 9.88348 29.0716 8.42606ZM36.8039 10.4864C36.2672 10.0087 35.654 9.72401 34.9639 9.63253C34.6298 9.58788 34.2716 9.57154 33.8896 9.5835C33.5108 9.59547 33.156 9.65864 32.8251 9.77289C31.7235 10.1528 31.0292 10.9566 30.7417 12.1844C30.7371 12.2048 30.7371 12.2261 30.7417 12.2465C30.7464 12.2669 30.7556 12.2861 30.7686 12.3025C30.7816 12.3189 30.7981 12.3323 30.8169 12.3415C30.8357 12.3507 30.8563 12.3557 30.8773 12.3558C32.9399 12.3863 35.0362 12.3961 37.1663 12.3853C37.1772 12.3853 37.248 12.3891 37.3786 12.3967C37.6801 12.414 37.7812 12.2605 37.6822 11.9362C37.494 11.3224 37.2011 10.8391 36.8039 10.4864Z" fill="#717383"/>
<path d="M46.9135 6.54871H43.4293C43.3661 6.54871 43.3151 6.59992 43.3151 6.66295V20.8444C43.3151 20.9076 43.3661 20.9586 43.4293 20.9586H46.9135C46.9765 20.9586 47.0277 20.9076 47.0277 20.8444V6.66295C47.0277 6.59992 46.9765 6.54871 46.9135 6.54871Z" fill="#717383"/>
<path d="M60.5349 6.54871H57.0802C57.0071 6.54871 56.9479 6.60794 56.9479 6.6809V20.8231C56.9479 20.8962 57.0071 20.9554 57.0802 20.9554H60.5349C60.608 20.9554 60.6672 20.8962 60.6672 20.8231V6.6809C60.6672 6.60794 60.608 6.54871 60.5349 6.54871Z" fill="#717383"/>
</svg>
