<svg width="94" height="26" viewBox="0 0 94 26" fill="none" xmlns="http://www.w3.org/2000/svg">
<g clip-path="url(#clip0_941_1939)">
<path d="M29.4219 12.4405C29.4219 16.5825 32.0819 19.4705 35.7679 19.4705C39.4539 19.4705 42.1139 16.5825 42.1139 12.4405C42.1139 8.29852 39.4539 5.41052 35.7679 5.41052C32.0819 5.41052 29.4219 8.29852 29.4219 12.4405ZM39.6819 12.4405C39.6819 15.4045 38.0669 17.3235 35.7679 17.3235C33.4689 17.3235 31.8539 15.4045 31.8539 12.4405C31.8539 9.47652 33.4689 7.55752 35.7679 7.55752C38.0669 7.55752 39.6819 9.47652 39.6819 12.4405Z" fill="#717383"/>
<path d="M48.9615 19.472C51.7545 19.472 53.3505 17.116 53.3505 14.285C53.3505 11.454 51.7545 9.09802 48.9615 9.09802C47.6695 9.09802 46.7195 9.61102 46.0925 10.352V9.28802H43.8125V22.683H46.0925V18.218C46.7195 18.959 47.6695 19.472 48.9615 19.472ZM46.0355 14C46.0355 12.119 47.0995 11.093 48.5055 11.093C50.1585 11.093 51.0515 12.385 51.0515 14.285C51.0515 16.185 50.1585 17.477 48.5055 17.477C47.0995 17.477 46.0355 16.432 46.0355 14.589V14Z" fill="#717383"/>
<path d="M59.5208 19.472C61.5158 19.472 63.0928 18.427 63.7958 16.679L61.8388 15.938C61.5348 16.964 60.6418 17.534 59.5208 17.534C58.0578 17.534 57.0318 16.489 56.8608 14.779H63.8528V14.019C63.8528 11.283 62.3138 9.09802 59.4258 9.09802C56.5378 9.09802 54.6758 11.359 54.6758 14.285C54.6758 17.363 56.6708 19.472 59.5208 19.472ZM59.4068 11.017C60.8508 11.017 61.5348 11.967 61.5538 13.069H56.9748C57.3168 11.72 58.2288 11.017 59.4068 11.017Z" fill="#717383"/>
<path d="M65.5664 19.263H67.8464V13.411C67.8464 11.986 68.8914 11.226 69.9174 11.226C71.1714 11.226 71.6654 12.119 71.6654 13.354V19.263H73.9454V12.689C73.9454 10.542 72.6914 9.09802 70.6014 9.09802C69.3094 9.09802 68.4164 9.68702 67.8464 10.352V9.28802H65.5664V19.263Z" fill="#717383"/>
<path d="M80.625 5.61951L75.457 19.2615H77.87L79.029 16.1455H84.919L86.097 19.2615H88.548L83.38 5.61951H80.625ZM81.955 8.31751L84.121 14.0175H79.827L81.955 8.31751Z" fill="#717383"/>
<path d="M92.4554 5.66052H90.0234V19.3025H92.4554V5.66052Z" fill="#717383"/>
<path d="M23.8525 10.6307C24.4273 8.90562 24.2294 7.01591 23.3103 5.44683C21.928 3.04016 19.1493 1.80199 16.4354 2.38466C15.2281 1.02458 13.4936 0.251119 11.6751 0.262202C8.90113 0.255869 6.43984 2.04187 5.58642 4.68129C3.80438 5.04625 2.26617 6.1617 1.36605 7.74266C-0.0264944 10.143 0.290964 13.1687 2.15138 15.2271C1.57663 16.9521 1.77455 18.8418 2.69367 20.4109C4.07592 22.8176 6.85467 24.0558 9.56851 23.4731C10.775 24.8332 12.5103 25.6066 14.3288 25.5948C17.1044 25.6019 19.5665 23.8143 20.4199 21.1725C22.2019 20.8075 23.7401 19.6921 24.6403 18.1111C26.0312 15.7108 25.713 12.6874 23.8533 10.6291L23.8525 10.6307ZM14.3304 23.9394C13.2197 23.941 12.1438 23.5523 11.2912 22.8405C11.33 22.82 11.3973 22.7828 11.4408 22.7558L16.4853 19.8425C16.7434 19.696 16.9017 19.4213 16.9001 19.1245V12.0129L19.0321 13.244C19.055 13.255 19.0701 13.2772 19.0733 13.3025V19.1917C19.0701 21.8106 16.9492 23.9338 14.3304 23.9394ZM4.13055 19.5828C3.57401 18.6217 3.37371 17.4952 3.56451 16.4019C3.60171 16.4241 3.66742 16.4645 3.71413 16.4914L8.75863 19.4047C9.01434 19.5543 9.33101 19.5543 9.58751 19.4047L15.7459 15.8485V18.3106C15.7475 18.336 15.7356 18.3605 15.7158 18.3763L10.6167 21.3205C8.34538 22.6284 5.44471 21.851 4.13134 19.5828H4.13055ZM2.80292 8.57154C3.35709 7.60887 4.23188 6.87262 5.27371 6.49025C5.27371 6.53379 5.27134 6.61058 5.27134 6.66441V12.4919C5.26976 12.788 5.42809 13.0627 5.68538 13.2091L11.8438 16.7645L9.7118 17.9955C9.69042 18.0098 9.66351 18.0122 9.63976 18.0019L4.53984 15.0553C2.2733 13.7427 1.49588 10.8428 2.80213 8.57233L2.80292 8.57154ZM20.3193 12.6478L14.161 9.09166L16.2929 7.86141C16.3143 7.84716 16.3412 7.84479 16.365 7.85508L21.4649 10.7993C23.7354 12.1111 24.5136 15.0157 23.2018 17.2862C22.6468 18.2473 21.7728 18.9835 20.7318 19.3667V13.3651C20.7342 13.069 20.5766 12.7951 20.3201 12.6478H20.3193ZM22.441 9.45425C22.4038 9.43129 22.3381 9.39171 22.2914 9.36479L17.2469 6.45145C16.9912 6.30183 16.6745 6.30183 16.418 6.45145L10.2596 10.0076V7.54554C10.258 7.5202 10.2699 7.49566 10.2897 7.47983L15.3888 4.538C17.6601 3.22779 20.564 4.00758 21.8734 6.27966C22.4268 7.23916 22.627 8.36254 22.4394 9.45425H22.441ZM9.10063 13.8425L6.96788 12.6114C6.94492 12.6003 6.92988 12.5782 6.92671 12.5528V6.66362C6.9283 4.04162 9.05551 1.91679 11.6775 1.91837C12.7866 1.91837 13.8601 2.30787 14.7128 3.0172C14.674 3.03779 14.6075 3.07499 14.5631 3.10191L9.51863 6.01525C9.26055 6.1617 9.10221 6.43562 9.1038 6.7325L9.10063 13.8409V13.8425ZM10.2588 11.3455L13.002 9.76141L15.7451 11.3447V14.5122L13.002 16.0955L10.2588 14.5122V11.3455Z" fill="#717383"/>
</g>
<defs>
<clipPath id="clip0_941_1939">
<rect width="93.4167" height="25.3333" fill="white" transform="translate(0.335938 0.262085)"/>
</clipPath>
</defs>
</svg>
