<svg width="99" height="26" viewBox="0 0 99 26" fill="none" xmlns="http://www.w3.org/2000/svg">
<mask id="mask0_941_1926" style="mask-type:luminance" maskUnits="userSpaceOnUse" x="0" y="0" width="99" height="26">
<path d="M98.1504 0.262085H0.335938V25.5954H98.1504V0.262085Z" fill="white"/>
</mask>
<g mask="url(#mask0_941_1926)">
<path d="M39.6796 11.6841C39.6796 11.0108 40.3271 10.5186 41.4153 10.5186C42.6067 10.5186 43.6434 10.9068 44.4722 11.8921L46.2594 10.0265C45.3268 8.7314 43.5651 7.97986 41.3371 7.97986C38.1765 7.97986 36.5704 9.79383 36.5704 11.6851C36.5704 16.141 43.2285 15.0528 43.2285 17.2807C43.2285 18.058 42.6067 18.5759 41.3886 18.5759C39.9123 18.5759 38.7201 18.058 37.7615 16.9956L36 19.0166C37.0624 20.2603 38.8498 21.1149 41.2075 21.1149C44.5752 21.1149 46.3625 19.3275 46.3625 17.2294C46.3634 12.5912 39.6796 13.8606 39.6796 11.6841Z" fill="#717383"/>
<path d="M52.863 8.34223V5.13H49.7023V8.34223H47.5V11.1405H49.6765V16.5034C49.6765 19.5345 51.2826 21.1148 53.7958 21.1148C55.3247 21.1148 56.4901 20.5454 57.1892 19.8711L55.7643 17.5135C55.4535 17.8759 54.883 18.1353 54.3138 18.1353C53.3809 18.1353 52.8888 17.566 52.8888 16.3995V11.1405H58.6491V20.7524H61.8099V8.34223H58.6491H52.863Z" fill="#717383"/>
<path d="M60.2031 2.95349C59.1932 2.95349 58.3634 3.80806 58.3634 4.81898C58.3634 5.85581 59.1922 6.65887 60.2031 6.65887C61.24 6.65887 62.0688 5.85581 62.0688 4.81898C62.0688 3.80904 61.239 2.95349 60.2031 2.95349Z" fill="#717383"/>
<path d="M70.2902 18.1353C69.3575 18.1353 68.8653 17.566 68.8653 16.3995V11.1405H72.2075V8.34223H68.8396V5.13H65.6789V8.34223H63.4766V11.1405H65.6531V16.5034C65.6531 19.5345 67.2592 21.1148 69.7724 21.1148C71.3012 21.1148 72.4665 20.5454 73.1659 19.8711L71.7409 17.5135C71.4299 17.8759 70.8593 18.1353 70.2902 18.1353Z" fill="#717383"/>
<path d="M80.3393 10.9583C81.5575 10.9583 82.4899 11.3474 83.2674 12.098L85.0802 9.84436C83.9924 8.70466 82.3077 7.97986 80.1838 7.97986C76.557 7.97986 73.707 10.9335 73.707 14.5607C73.707 18.162 76.557 21.1149 80.2352 21.1149C82.2042 21.1149 83.9924 20.3376 84.9767 19.2492L83.3703 16.9173C82.5933 17.6946 81.5829 18.1353 80.3134 18.1353C78.2922 18.1353 76.8681 16.5292 76.8681 14.5339C76.8681 12.5387 78.267 10.9583 80.3393 10.9583Z" fill="#717383"/>
<path d="M93.4271 7.97973C91.8988 7.97973 90.7074 8.54999 89.9298 9.56009V2.92761H86.7695V20.7514H89.9298V13.705C89.9298 12.0208 90.889 10.9593 92.4687 10.9593C93.9979 10.9593 94.9824 12.0218 94.9824 13.705V20.7514H98.1427V13.2376C98.1419 10.0007 96.3032 7.97973 93.4271 7.97973Z" fill="#717383"/>
<path fill-rule="evenodd" clip-rule="evenodd" d="M10.6094 25.5647C11.8006 25.5854 12.8189 25.5956 13.8155 25.5956C14.811 25.5956 15.7995 25.5854 16.8352 25.5637L16.937 25.5606C18.3064 25.5029 19.5986 25.2013 20.7763 24.6618C21.9274 24.1346 22.9385 23.3976 23.7805 22.4709C24.5682 21.6061 25.1776 20.6084 25.5936 19.5068C25.7079 19.202 25.8077 18.8911 25.8902 18.5771C27.5374 17.9635 29.022 16.8794 30.1278 15.4699C31.4446 13.7928 32.1694 11.7203 32.1694 9.6354C32.1694 8.32175 31.8924 7.05326 31.3458 5.86628C30.8546 4.80059 30.1576 3.82881 29.2742 2.97636C27.5693 1.33307 25.2198 0.406444 22.4802 0.296402L22.4288 0.294282L22.3762 0.293305C21.1809 0.272601 20.1628 0.262329 19.1703 0.262329C18.1757 0.262329 17.1883 0.272599 16.1505 0.294282C16.1505 0.294282 16.0733 0.296404 16.0476 0.297382C14.6783 0.355092 13.3862 0.656687 12.2093 1.19613C11.0584 1.72335 10.0473 2.46055 9.20514 3.38701C8.41757 4.253 7.80802 5.24957 7.39215 6.35112C7.27787 6.65597 7.17793 6.96686 7.09561 7.28084C5.44825 7.89447 3.96375 8.97858 2.85796 10.3881C1.54121 12.0653 0.816406 14.1376 0.816406 16.2226C0.816406 17.5362 1.09322 18.8047 1.64 19.9918C2.13103 21.0574 2.82812 22.0303 3.71139 22.8818C5.41646 24.5249 7.7658 25.4515 10.5023 25.5616L10.5569 25.5637L10.6094 25.5647ZM27.9881 4.31054C28.7048 5.00128 29.2679 5.78591 29.6622 6.64146C30.0967 7.58342 30.3169 8.5914 30.3181 9.63638C30.3181 11.3084 29.7331 12.9743 28.6717 14.3271C27.6443 15.6366 26.2172 16.5982 24.6544 17.0338L24.2878 17.1357C24.2148 17.7194 24.0728 18.2949 23.8617 18.8529C23.5281 19.7343 23.04 20.5332 22.4111 21.2251C21.7376 21.9654 20.9285 22.5552 20.006 22.9775C19.0474 23.416 17.989 23.662 16.8606 23.7094C16.8422 23.7104 16.8236 23.7114 16.805 23.7114H16.7978C15.7734 23.7321 14.7975 23.7424 13.8153 23.7424C12.831 23.7424 11.823 23.7321 10.6422 23.7114L10.6112 23.7104L10.5804 23.7094C8.30101 23.6167 6.36949 22.8692 4.99716 21.5463C4.2805 20.8555 3.71742 20.0709 3.32306 19.2154C2.88958 18.2732 2.66934 17.2664 2.66934 16.2214C2.66934 14.5494 3.2541 12.8837 4.31457 11.5297C5.34195 10.2202 6.76891 9.25849 8.33182 8.82305L8.6983 8.72116C8.77149 8.13738 8.91348 7.5619 9.1246 7.00387C9.45815 6.12256 9.94608 5.32358 10.5752 4.6317C11.2485 3.89141 12.0577 3.30159 12.9803 2.87936C13.9377 2.44082 14.9951 2.19482 16.1236 2.14738C16.142 2.1464 16.1615 2.14542 16.1801 2.14542H16.1873C17.2117 2.12472 18.1878 2.11445 19.17 2.11445C20.1543 2.11445 21.1621 2.12472 22.3431 2.14542L22.3739 2.1464L22.4049 2.14738C24.6843 2.24014 26.6158 2.9876 27.9881 4.31054ZM21.9838 11.228C23.1297 12.0363 23.8349 13.7969 23.9254 14.4239C25.9855 13.8494 27.6071 11.8767 27.6071 9.63638C27.6071 8.28866 27.0266 7.147 26.1081 6.26146C25.1898 5.37705 23.8667 4.91895 22.2956 4.85521C20.1758 4.81804 18.3689 4.81184 16.2429 4.85521H16.2398C12.9989 4.98905 11.3525 7.39513 11.3525 9.63638C11.3525 10.9841 11.8962 12.0992 12.6076 12.8259C13.3632 13.627 14.2569 14.1293 15.999 14.4722C16.4829 14.5669 17.3117 14.7296 17.7285 15.1733C17.9612 15.4205 18.1465 15.7808 18.1465 16.1432C18.1465 16.4757 18.0322 16.8494 17.7626 17.1409C17.5021 17.4219 17.0459 17.6216 16.527 17.6309C14.6193 17.6658 12.413 17.6629 10.5041 17.6309C9.9852 17.6216 9.52923 17.4219 9.26872 17.1409C8.99891 16.8484 8.88463 16.4757 8.88463 16.1432C8.88463 15.4193 9.50657 14.6556 10.6565 14.6556C10.7698 14.6534 10.881 14.6534 10.9953 14.6544C11.0087 14.6544 11.0137 14.638 11.0035 14.6308C9.85756 13.8225 9.15232 12.062 9.06184 11.435C7.00268 12.0095 5.3801 13.9821 5.3801 16.2224C5.3801 17.5701 5.96079 18.7129 6.87911 19.5973C7.79742 20.4817 9.12053 20.94 10.6916 21.0037C12.8114 21.0407 14.6184 21.0469 16.7443 21.0037H16.7474C19.9885 20.8699 21.6347 18.4638 21.6347 16.2224C21.6347 14.8747 21.0911 13.7598 20.3798 13.033C19.624 12.2319 18.7303 11.7294 16.9884 11.3866C16.5044 11.2919 15.6757 11.1292 15.2587 10.6854C15.0261 10.4385 14.8407 10.078 14.8407 9.71561C14.8407 9.38304 14.955 9.00939 15.2246 8.71806C15.4852 8.43701 15.9413 8.23731 16.4602 8.22801C18.3679 8.19296 20.5743 8.19606 22.4831 8.22801C23.002 8.23731 23.458 8.43701 23.7185 8.71806C23.9883 9.01037 24.1026 9.38304 24.1026 9.71561C24.1026 10.4394 23.4807 11.2034 22.3307 11.2034C22.2174 11.2055 22.1062 11.2055 21.9919 11.2043C21.9786 11.2043 21.9735 11.2208 21.9838 11.228Z" fill="#717383"/>
</g>
</svg>
