<svg width="102" height="16" viewBox="0 0 102 16" fill="none" xmlns="http://www.w3.org/2000/svg">
<mask id="mask0_941_1957" style="mask-type:luminance" maskUnits="userSpaceOnUse" x="-1" y="0" width="103" height="16">
<path d="M101.5 0.595581H-0.00524902V15.4356H101.5V0.595581Z" fill="white"/>
</mask>
<g mask="url(#mask0_941_1957)">
<path d="M24.4752 0.595581H27.8516V12.1741H37.9808V15.2725H24.4752V0.595581Z" fill="#717383"/>
<path d="M40.5104 0.595581H55.7042V3.694H49.7955V15.2725H46.4191V3.694H40.5104V0.595581Z" fill="#717383"/>
<path fill-rule="evenodd" clip-rule="evenodd" d="M76.4856 2.0518C75.4634 1.13622 73.9906 0.595581 72.1767 0.595581H63.2994V15.2725H66.6758V10.1772H72.2383L75.1589 15.2725H79.3373L75.6849 9.38222C77.1475 8.53832 78.0171 7.15206 78.0171 5.48784C78.0171 4.20777 77.5041 2.96347 76.4856 2.0518ZM66.6758 7.11864V3.694H72.1031C73.0926 3.694 73.6791 3.97291 74.0216 4.29335C74.3789 4.62692 74.5492 5.0762 74.5492 5.51642C74.5492 5.93962 74.3907 6.318 74.0637 6.59269C73.7378 6.86597 73.1472 7.11864 72.1025 7.11864H66.6758Z" fill="#717383"/>
<path d="M84.4088 15.2725H87.9966L92.8499 4.67252L97.7037 15.2725H101.291L94.5381 0.595581H91.1618L84.4088 15.2725Z" fill="#717383"/>
<path d="M-0.00524902 7.24264V0.595581H3.37114V7.29402C3.37958 8.9851 3.88179 10.1226 4.7132 10.9118C5.56319 11.7109 6.69943 12.1741 8.4358 12.1741C10.1745 12.1741 11.3242 11.7092 12.1725 10.9111C12.9964 10.1282 13.5003 8.97854 13.5003 7.2417V0.595581H16.8767V7.24264C16.8767 9.62833 16.1524 11.7069 14.53 13.2454C12.9339 14.7506 10.8769 15.4355 8.4358 15.4355C5.99202 15.4355 3.95019 14.7475 2.35405 13.2454C0.740895 11.715 0.00568235 9.60069 -0.00524902 7.24264Z" fill="#717383"/>
</g>
</svg>
