<svg width="89" height="24" viewBox="0 0 89 24" fill="none" xmlns="http://www.w3.org/2000/svg">
<mask id="mask0_941_1983" style="mask-type:luminance" maskUnits="userSpaceOnUse" x="0" y="0" width="101" height="24">
<path d="M100.293 0.595581H0.740845V23.2736H100.293V0.595581Z" fill="white"/>
</mask>
<g mask="url(#mask0_941_1983)">
<path d="M17.1078 8.15592L20.3811 6.26512L10.5611 0.595581L0.740845 6.26512L4.0142 8.15592L0.740845 10.0452L4.0142 11.9347L0.740845 13.8253L4.0142 15.7148L0.740845 17.6042L10.5623 23.2737L20.3811 17.6042L17.1091 15.7148L20.3811 13.8253L17.1078 11.936L20.3811 10.0452L17.1078 8.15592Z" fill="#717383"/>
<path d="M38.3152 5.91687H43.1638L47.5829 14.2444L48.5727 13.6172C47.4519 11.8365 46.775 10.1867 46.775 8.3575V5.91687H50.271V17.4601H46.1976L40.9706 7.58233L39.965 8.17553C41.0033 9.77546 41.8125 11.8692 41.8125 13.9302V17.4589H38.3165V5.91687H38.3152Z" fill="#717383"/>
<path d="M74.5612 5.91687H79.4097L83.8287 14.2444L84.8187 13.6172C83.6978 11.8365 83.0208 10.1867 83.0208 8.3575V5.91687H86.5168V17.4601H82.4434L77.2165 7.58233L76.2109 8.17553C77.2493 9.77546 78.0584 11.8692 78.0584 13.9302V17.4589H74.5624L74.5612 5.91687Z" fill="#717383"/>
<path d="M26.3463 5.97961H29.9837V12.161C29.9837 13.9221 30.5547 14.7051 31.8431 14.7051C33.1315 14.7051 33.6866 13.9221 33.6866 12.161V5.97961H37.3567V12.5854C37.3567 15.9779 35.449 17.6748 31.8601 17.6748C28.2711 17.6748 26.3463 15.9779 26.3463 12.5854V5.97961Z" fill="#717383"/>
<path d="M51.3268 5.97961H57.1992C59.6949 5.97961 61.0815 7.07294 61.0815 8.75285C61.0815 10.1224 60.2331 11.0691 58.7168 11.4121C60.4622 11.7055 61.5228 12.8145 61.5228 14.2993C61.5228 16.2397 59.8586 17.3985 57.2818 17.3985H51.3281L51.3268 5.97961ZM56.5786 10.4655C57.2962 10.4655 57.7531 10.1066 57.7531 9.52005C57.7531 8.93347 57.2962 8.57479 56.5786 8.57479H54.8175V10.4668L56.5786 10.4655ZM56.5944 14.7877C57.3931 14.7877 57.9155 14.4289 57.9155 13.7597C57.9155 13.0908 57.3931 12.7163 56.5944 12.7163H54.8163V14.7877H56.5944Z" fill="#717383"/>
<path d="M69.3725 15.3088H65.3921L64.7558 17.3972H61.151L65.0661 5.97961H69.9434L73.891 17.3972H70.0088L69.3725 15.3088ZM68.6065 12.6666L68.215 11.3297C67.9702 10.4981 67.7096 9.56855 67.432 8.54075L67.2042 9.35645L66.6163 11.3623L66.2091 12.6678L68.6065 12.6666Z" fill="#717383"/>
<path d="M91.4744 11.378L87.6248 5.97961H91.8815L92.6475 7.1213L93.7892 8.75285L94.7674 7.23532L95.5832 5.97961H99.8401L96.0559 11.395L100.297 17.3972H96.0073L94.931 15.7658L94.6534 15.3585L93.7722 13.989L92.582 15.7828L91.5215 17.3972H87.1823L91.4717 11.378H91.4744Z" fill="#717383"/>
</g>
</svg>
