<svg width="59" height="20" viewBox="0 0 59 20" fill="none" xmlns="http://www.w3.org/2000/svg">
<mask id="mask0_941_1915" style="mask-type:luminance" maskUnits="userSpaceOnUse" x="-1" y="0" width="60" height="20">
<path d="M58.4308 0.595337H-0.00390625V19.262H58.4308V0.595337Z" fill="white"/>
</mask>
<g mask="url(#mask0_941_1915)">
<path d="M25.3118 18.9924H20.5781L23.5389 0.922485H28.2722L25.3118 18.9924Z" fill="#717383"/>
<path d="M42.4729 1.36463C41.5393 0.998974 40.0584 0.595337 38.2274 0.595337C33.5527 0.595337 30.2608 3.05573 30.2406 6.57335C30.2018 9.16873 32.5975 10.6103 34.3894 11.4756C36.2207 12.3598 36.8432 12.937 36.8432 13.7253C36.8246 14.9358 35.3633 15.4938 34.0005 15.4938C32.1107 15.4938 31.098 15.2062 29.5591 14.5326L28.9358 14.2439L28.2734 18.3002C29.3837 18.7995 31.4291 19.2426 33.5527 19.2619C38.5195 19.2619 41.7532 16.8396 41.7914 13.0909C41.8103 11.0338 40.5453 9.45769 37.818 8.16979C36.1624 7.34294 35.1486 6.78547 35.1486 5.93948C35.1679 5.17048 36.0061 4.38278 37.875 4.38278C39.4139 4.34421 40.5446 4.70928 41.4011 5.07465L41.8293 5.2666L42.4729 1.36463Z" fill="#717383"/>
<path d="M48.7728 12.5909C49.1627 11.5528 50.6628 7.5351 50.6628 7.5351C50.643 7.57367 51.0518 6.47787 51.2855 5.80514L51.6164 7.36213C51.6164 7.36213 52.5128 11.6875 52.7074 12.5909C51.9676 12.5909 49.7078 12.5909 48.7728 12.5909ZM54.6159 0.922485H50.9545C49.8254 0.922485 48.9676 1.24914 48.4804 2.42177L41.4492 18.9921H46.416C46.416 18.9921 47.2338 16.7618 47.4096 16.2815C47.9545 16.2815 52.7861 16.2815 53.4871 16.2815C53.6229 16.9159 54.0518 18.9921 54.0518 18.9921H58.4347L54.6159 0.922485Z" fill="#717383"/>
<path d="M16.6282 0.922485L11.9924 13.2445L11.4859 10.7454C10.6289 7.86189 7.94086 4.72892 4.94141 3.1712L9.18756 18.9732H14.1932L21.6337 0.922485H16.6282Z" fill="#717383"/>
<path d="M7.6899 0.922485H0.0739565L-0.00390625 1.2877C5.937 2.78714 9.87156 6.40161 11.488 10.7462L9.83241 2.4415C9.55995 1.28741 8.7223 0.960614 7.6899 0.922485Z" fill="#717383"/>
</g>
</svg>
